<svg version="1" xmlns="http://www.w3.org/2000/svg" width="933.333" height="933.333" viewBox="0 0 700.000000 700.000000"><path d="M385.7 28.6c-.1.1-6.3.5-13.7.9-7.4.4-13.7.8-14 1-.3.2-3.4.6-7 1-16.4 1.7-46 8.6-67 15.5-23.6 7.8-58.7 23.2-74.7 32.6-1.7 1.1-5.7 3.4-9 5.3-16.5 9.6-43.2 29.3-54.3 40.1-.3.3-4.3 4.1-8.8 8.5l-8.3 8 3.5-8.1c8.2-19.4 17.1-35.6 27-49.4 11.2-15.6 34.8-37.3 47-43.1 3.8-1.8 4.1-3 1.8-5.9l-1.9-2.4-13.4 6.9c-43.1 22.1-68.3 41.2-98.5 74.6-6.2 6.9-18.1 22.7-25 33.4-22.3 34.3-38.4 73.8-44.8 110-.3 1.6-.8 3.9-1 5-2 10.3-3.9 33.4-3.9 47.5 0 8.6 1.1 30.1 1.8 34.2.2 1.3.9 5.7 1.4 9.8.6 4.1 1.3 8.6 1.6 10 .3 1.4.8 4.1 1.1 6 1.2 7.3 7.5 31 11.4 43 20.6 62.4 54.4 115.2 99 154.8 1.9 1.7 3 3.2 2.4 3.2-.6 0-6.4-1.8-12.9-4.1-34.8-12-59-29.1-81.8-57.7-3.7-4.6-8.3-11-10.3-14.3-3.9-6.2-7.3-7.8-9.3-4.2-1.2 2.3 6.8 18.2 20.1 39.5 31.9 51.4 86 96.1 146.9 121.3 13.3 5.5 40.5 13.8 52.4 15.9 1.7.3 3.9.8 5 1 3.3.6 9.8 1.6 13.5 2.1 1.9.2 6.4.8 10 1.2 8.3 1 54.4 1 63.4 0 14.9-1.6 33.4-4.6 38.4-6.1.9-.3 2.9-.7 4.3-1 1.4-.2 8.8-2 16.5-4.1 62.5-16.3 116.3-44.3 158.5-82.5.9-.8 5.1-4.9 9.4-9l7.7-7.5-4.2 8.5c-5.9 11.8-16.3 30-22.3 39-15.9 23.8-36.3 44.9-49.9 51.9-1.5.8-3 2.3-3.4 3.3-.6 2 1.1 4.8 3 4.8 1.4 0 23.9-11.4 34.1-17.3 32.2-18.5 65.6-47.4 87.5-75.7 1.9-2.5 3.7-4.7 4-5 1-.8 17.6-26.1 20-30.5 12-21.4 19.3-37.5 25.5-56 4-11.8 8-26 9.1-32.5.3-1.4 1.1-5.9 1.9-10 3-16.1 4-27.7 4-49.5 0-21.3-.9-32.6-4-52-2.9-17.5-12.3-51.3-19.8-71-18.2-47.5-44.1-87.9-78-121.7-4.9-4.8-8.5-8.8-8-8.8 1.1 0 11.8 4.2 18.3 7.2 13.8 6.3 18.4 8.7 27.5 14.1 22.6 13.6 40.4 30.2 51.9 48.4 1.9 3.2 3.3 4.3 5.1 4.3 4.1 0 4-2.6-.5-11.8-26.7-53.8-66-96.5-116-126.3-9.6-5.7-37-19.9-38.4-19.9-.4 0-2.8-.9-5.4-2.1-28.2-12.5-64.8-21.3-97.1-23.5-9.5-.6-29-1.1-29.4-.8zM378 98.4c3.6.4 7.4.9 8.5 1.1 1.1.1 4.5.6 7.5 1s11.8 2.2 19.6 4.1c25.8 6.2 47.6 14.7 69.4 27.2 22.7 13 37.8 24.7 56.5 43.6 28.4 28.7 48.2 60.7 60.3 97.6 3.8 11.4 8.8 32.2 9.8 40.5.3 3.3.8 6.9 1 8 .9 4.6 1.8 21.7 1.7 31.5-.1 17.6-2 34.7-5.7 52.7-1.7 8.2-9.1 31.8-12.3 39.3-9.3 21.8-23.9 46.5-37.9 64-9 11.2-27.6 29.7-39.4 39.1-8.9 7.1-25.5 18.9-26.5 18.9-.3 0-2.8 1.5-5.7 3.4-6.6 4.1-25.8 13.5-35.8 17.4-13.5 5.3-34.4 11.5-46 13.6-1.4.2-5.2.9-8.5 1.5-38.4 6.9-84.1 3.7-124-8.7-15.9-5-50.8-20.8-56.5-25.7-.8-.7-2.9-2-4.6-2.8-6.7-3.4-31.5-23-41.4-32.8-14.1-13.8-18-18.3-28.1-31.9C99.2 446.4 83.1 379.7 94 311.5c2.7-16.6 9.3-40.5 14.4-52 .8-1.7 3-6.7 5.1-11.3 21.1-47.5 62.9-92 111-118.4 30.8-16.9 70.3-28.8 104-31.4 5-.3 9.1-.8 9.3-.9.6-.5 33.9.3 40.2.9z"/></svg>