<svg id="Layer_1" data-name="Layer 1" xmlns="http://www.w3.org/2000/svg" viewBox="0 0 300 300"><defs><style>.cls-1{fill:#31ba98;opacity:0.7;isolation:isolate;}.cls-2{fill:none;}.cls-3{fill:#3a4853;}.cls-4{fill:#f3f2ee;}</style></defs><title>TwoRivers Pieces</title><path id="Path_222" data-name="Path 222" class="cls-1" d="M153,39.5A110.5,110.5,0,0,1,263.5,150c0,61-74.57-64.34-74.57-64.34s-13.55,21.64-27.3,26.1c-5.54,1.8-10.22-.6-16.83,6.61s-42.26,28-55.3,7.21C61.36,167,42.5,180.39,42.5,150A110.5,110.5,0,0,1,153,39.5Z"/><g id="Ellipse_17" data-name="Ellipse 17"><circle class="cls-2" cx="153" cy="150" r="110.5"/><path class="cls-3" d="M153,260.5A110.5,110.5,0,1,1,263.5,150,110.63,110.63,0,0,1,153,260.5Zm0-214A103.5,103.5,0,1,0,256.5,150,103.62,103.62,0,0,0,153,46.5Z"/></g><path class="cls-4" d="M158.91,129c15.09.56,21.09-14.5,41.93-10.34,0,0,9.82-6-4.25-11.6S155.53,93,136.13,114.53,146,146.47,146,146.47s38.05.75,41.91-9.56S180,131,180,131"/><path class="cls-4" d="M127,110.19s-23.31,27.84,7,43.87c0,0-13,47.53,26.08,48.38,0,0,.76,14.45,7.37,17,0,0-36.05,10.37-59.4-26.5S97,133,127,110.19Z"/><path class="cls-3" d="M149.81,150c-10.08,0-17.89-4.46-21.24-12.31-4.3-10.07.22-22.88,11.51-32.62,14.52-12.52,37.68-9.66,53.11-3.41,5.23,2.12,14.08,6.5,14.57,12,.35,3.94-.51,6.83-2.55,8.58a6.61,6.61,0,0,1-5.73,1.37l-.56-.13-.48-.31c-1-.63-10.1-6-16.45,2.06a15.87,15.87,0,0,1-1.85,2l.53-.17c4.71-1.56,8.42-2.79,11.06-.44,1.55,1.38,2.05,3.48,1.48,6.25-2.56,12.51-16.79,14.76-39.92,17C152.1,149.94,150.94,150,149.81,150Zm16.84-46.62c-7.35,0-15.67,1.53-22,7-8.95,7.71-12.74,17.36-9.65,24.57,2.47,5.78,9.05,8.74,17.61,7.92,21.22-2,31-4,33.37-10.17-1,.29-2.15.67-3.12,1-6.08,2-14.42,4.77-22.39,1.73h0c-4.32-1.65-6.92-2.64-6.4-5.82s3.39-3.18,5.94-3.27c4.07-.16,12.55-.48,16.49-5.45,7.62-9.62,18.45-7.45,24.24-4.45a8.27,8.27,0,0,0,.05-2c-1-1.91-8.51-6.7-20.07-9.39A63.31,63.31,0,0,0,166.65,103.38Zm34.19,11.15Z"/><path class="cls-3" d="M157.54,225.14c-13.74,0-30.87-5.46-40.2-15.68-41.47-34.92-21.78-72.18-11.37-86.6a87,87,0,0,1,14.15-15.42c7.55-6.33,10.23-5.92,12-4.54.77.6,3.07,2.92.06,7.42l-.83,1.23c-4.86,7.21-10.91,16.2-9,24.53,1.29,5.57,6.18,10.69,14.55,15.21l2.83,1.53L138.58,156c-7.88,21.07,2.26,36.84,10.51,41.84,1.48.89,4.38.94,6.49,1,3,0,7,.1,7.78,3.81a18.92,18.92,0,0,1,.76,3.79c.25,2.18.49,4.23,6.31,11.27L174,222l-5.2,1.65A37.63,37.63,0,0,1,157.54,225.14ZM118.71,118.69c-7.36,7.77-15.94,19.83-18.75,33.95-3.72,18.65,3.65,35.87,21.92,51.17l.36.36c9.14,10.18,27.41,14.39,39.11,13.36-3.27-4.72-3.84-7.35-4.18-10.26,0-.38-.09-.73-.14-1.07-.5,0-1.07,0-1.55,0-3,0-6.81-.1-9.86-1.95-12.31-7.45-21.18-26.47-14.6-47.88-8.73-5.26-13.8-11.34-15.45-18.49C114,131.08,115.84,124.55,118.71,118.69Z"/><path class="cls-3" d="M112,100.5a2.8,2.8,0,0,1-.7-.09L89.64,94.56a3.45,3.45,0,0,1-2.24-4.11,3,3,0,0,1,3.65-2.52l21.63,5.84a3.46,3.46,0,0,1,2.24,4.12A3.14,3.14,0,0,1,112,100.5Z"/><path class="cls-3" d="M81.5,108.5a3.5,3.5,0,0,1-.15-7l23-1a3.5,3.5,0,1,1,.3,7l-23,1Z"/><path class="cls-3" d="M86.5,121.5a3.5,3.5,0,0,1-.29-7l12-1a3.5,3.5,0,1,1,.58,7l-12,1Z"/><path class="cls-3" d="M125.38,100.9a3.6,3.6,0,0,1-2.13-.7L100.49,83.65a3.62,3.62,0,1,1,4.26-5.85l22.76,16.55a3.62,3.62,0,0,1-2.13,6.55Z"/><path class="cls-4" d="M189.87,170v20.33l23,11L198,208.63S162,227,170.44,192.92C170.44,192.92,181.18,170.48,189.87,170Z"/><path class="cls-3" d="M182,219.42a14.92,14.92,0,0,1-12-5.63c-5-6.19-6.77-18.35,3.05-33.95h0l.17-.28c5.79-9.2,10.67-16.25,16.17-16.25h.07a5.36,5.36,0,0,1,4.34,2.27c2.39,3.25,1.44,8.28.24,14.65a57.85,57.85,0,0,0-1.13,7.9c2,.93,7.09,2.14,10.57,3,10.86,2.62,16.84,4.06,16.69,9.77-.13,5.52-4.73,6.79-8.79,7.91a67.79,67.79,0,0,0-17.16,7A24.91,24.91,0,0,1,182,219.42Zm4.36-43.8c-2.33,2.94-5,7.15-6.26,9.18l-.17.28c-6.63,10.52-6.61,18.94-3.66,22.62,2.72,3.39,8.12,3.37,14.09-.06a73.58,73.58,0,0,1,15-6.62l-3.71-.92c-9.47-2.28-13.52-3.46-15.48-6-2.65-3.49-1.59-9.13-.36-15.67C186,177.58,186.17,176.61,186.34,175.62Z"/><path class="cls-3" d="M72.46,170A4.44,4.44,0,0,1,69,168.46c-1.6-1.76-4.58-5,12.56-25.44a3.51,3.51,0,0,1,5.37,4.51,132,132,0,0,0-10,13.49c1.81-1,4.31-2.58,7.75-5a3.5,3.5,0,1,1,4,5.76C80.44,167.47,75.63,170,72.46,170Z"/><path class="cls-3" d="M157.44,170.39c-3,0-7.28-1.22-13.19-3.24a3.5,3.5,0,1,1,2.26-6.62c1.57.53,2.93,1,4.1,1.33-2.07-1.64-4.53-3.44-7-5.09a3.5,3.5,0,1,1,3.89-5.83c.15.11,3.86,2.59,7.48,5.43,5.91,4.65,9,8,7.29,11.47C161.38,169.61,159.83,170.39,157.44,170.39Zm-1.6-3.65h0Z"/><path class="cls-3" d="M115.21,237a4.38,4.38,0,0,1-1.59-.32c-3.82-1.48-3.28-6.75-2.33-12.48.69-4.12,1.65-8.05,1.7-8.22a3.5,3.5,0,1,1,6.79,1.68c-.46,1.9-.88,3.85-1.23,5.68.35-.6.71-1.26,1.1-2a3.5,3.5,0,1,1,6.16,3.34C121.42,232.76,118.5,237,115.21,237Zm2.47-5.35h0Z"/></svg>