<svg id="Layer_1" data-name="Layer 1" xmlns="http://www.w3.org/2000/svg" viewBox="0 0 300 300"><defs><style>.cls-1{fill:#dc5e3d;opacity:0.7;isolation:isolate;}.cls-2{fill:#f3f2ee;}.cls-3{fill:#3a4853;}.cls-4{fill:none;}</style></defs><title>TwoRivers Pieces</title><path id="Path_222" data-name="Path 222" class="cls-1" d="M149.93,39.07a110.5,110.5,0,0,1,110.5,110.5c0,61-74.57-64.34-74.57-64.34s-13.55,21.64-27.3,26.1c-5.54,1.8-10.21-.6-16.83,6.61s-42.26,28-55.3,7.21c-28.14,41.42-47,54.81-47,24.42A110.5,110.5,0,0,1,149.93,39.07Z"/><path class="cls-2" d="M80.1,191.07H66.88a2,2,0,0,1-1.73-3L110.71,110a1.93,1.93,0,0,1,1.72-1,2,2,0,0,1,1.73,1l26.64,45.67L124.24,184a9.94,9.94,0,0,0-1.17,7h-4.31l-15.85-28L99.43,157,96,163.1Z"/><path class="cls-3" d="M77.77,187.07l14.7-25.94a8,8,0,0,1,13.92,0l13.25,23.37a14.25,14.25,0,0,1,1.15-2.48l15.38-26.38L112.43,115,70.36,187.07h7.41m4.66,8H66.88a6,6,0,0,1-5.18-9L107.25,108a6,6,0,0,1,10.37,0l27.81,47.68L127.7,186.05a6,6,0,0,0,5,9H116.43l-17-30-17,30Z"/><path class="cls-2" d="M147.39,191.57H135.88a2.5,2.5,0,0,1-2.16-3.76l45.55-78.09a2.5,2.5,0,0,1,4.32,0l45.56,78.09a2.51,2.51,0,0,1-2.16,3.76H185.47l-16-28.22-3-5.38-3,5.38Z"/><path class="cls-3" d="M145.35,188.07l15-26.45a7,7,0,0,1,12.18,0l15,26.45h37.74L181.43,113l-43.81,75.11h7.73m4.08,7H135.88a6,6,0,0,1-5.18-9L176.25,108a6,6,0,0,1,10.37,0l45.55,78.09a6,6,0,0,1-5.18,9H183.43l-17-30-17,30Z"/><path class="cls-3" d="M108.94,103.07a3.49,3.49,0,0,1-2.87-1.48l-12-17a3.5,3.5,0,1,1,5.72-4l12,17a3.5,3.5,0,0,1-2.85,5.52Z"/><path class="cls-3" d="M176.94,103.07a3.49,3.49,0,0,1-2.87-1.48l-12-17a3.5,3.5,0,1,1,5.72-4l12,17a3.5,3.5,0,0,1-2.85,5.52Z"/><path class="cls-3" d="M183.93,95.07a3.5,3.5,0,0,1-2.76-5.65l7-9a3.5,3.5,0,0,1,5.53,4.3l-7,9A3.5,3.5,0,0,1,183.93,95.07Z"/><path class="cls-3" d="M115.93,95.07a3.5,3.5,0,0,1-2.76-5.65l7-9a3.5,3.5,0,0,1,5.53,4.3l-7,9A3.5,3.5,0,0,1,115.93,95.07Z"/><g id="Ellipse_17" data-name="Ellipse 17"><circle class="cls-4" cx="149.93" cy="149.73" r="110.5"/><path class="cls-3" d="M149.93,260.23a110.5,110.5,0,1,1,110.5-110.5A110.63,110.63,0,0,1,149.93,260.23Zm0-214a103.5,103.5,0,1,0,103.5,103.5A103.62,103.62,0,0,0,149.93,46.23Z"/></g><path class="cls-3" d="M94.25,218.06a3.5,3.5,0,0,1-1-6.85l32.75-10a3.44,3.44,0,0,1,1.8-.06l43,9.8,39.35-9.79a3.5,3.5,0,0,1,1.69,6.8l-40.16,10a3.46,3.46,0,0,1-1.63,0l-42.86-9.78-31.86,9.72A3.6,3.6,0,0,1,94.25,218.06Z"/><path class="cls-3" d="M167.93,231.84l-32.57-7.45-23.55,7.2a3.5,3.5,0,0,1-2-6.69l25.34-7.75,32.76,7.49L197,217.37a3.5,3.5,0,0,1,1.69,6.8Z"/></svg>