<svg id="Layer_1" data-name="Layer 1" xmlns="http://www.w3.org/2000/svg" viewBox="0 0 300 300"><defs><style>.cls-1{fill:#e2c52c;opacity:0.7;isolation:isolate;}.cls-2{fill:none;}.cls-3{fill:#3a4853;}.cls-4{fill:#f3f2ee;}</style></defs><title>TwoRivers Pieces</title><path id="Path_222" data-name="Path 222" class="cls-1" d="M152,39.35a110.5,110.5,0,0,1,110.5,110.5c0,61-74.57-64.34-74.57-64.34s-13.55,21.64-27.3,26.1c-5.54,1.8-10.22-.6-16.83,6.61s-42.26,28-55.3,7.22c-28.14,41.41-47,54.81-47,24.41A110.5,110.5,0,0,1,152,39.35Z"/><g id="Ellipse_17" data-name="Ellipse 17"><circle class="cls-2" cx="152.19" cy="149.73" r="110.5"/><path class="cls-3" d="M152.19,260.23a110.5,110.5,0,1,1,110.5-110.5A110.63,110.63,0,0,1,152.19,260.23Zm0-214a103.5,103.5,0,1,0,103.5,103.5A103.62,103.62,0,0,0,152.19,46.23Z"/></g><path class="cls-4" d="M135.63,106.53s-24.38-1.73-28.13,73.62c0,0-5.25,8.65,11.63,0s8.32,30.35,25.72,19.1l8-59.25s15.95,49.33,27.8,64.88-1.95-24,8.4-20.63l6.22-4.1h18.09s-27.77-52.66-53.3-61C160,119.12,143.88,139.06,135.63,106.53Z"/><path class="cls-3" d="M120.18,119.12a3.48,3.48,0,0,1-1.59-.38l-11-5.59a3.5,3.5,0,1,1,3.18-6.24l11,5.59a3.5,3.5,0,0,1-1.59,6.62Z"/><path class="cls-3" d="M125.73,110.53a3.46,3.46,0,0,1-2.58-1.14l-5.48-6a3.5,3.5,0,1,1,5.16-4.73l5.48,6a3.51,3.51,0,0,1-2.58,5.87Z"/><path class="cls-3" d="M173.51,128.55a3.5,3.5,0,0,1-1.57-6.63l10.33-5.15A3.5,3.5,0,0,1,185.4,123l-10.33,5.15A3.47,3.47,0,0,1,173.51,128.55Z"/><path class="cls-3" d="M168.85,120.27a3.49,3.49,0,0,1-2.75-5.66l6-7.56a3.5,3.5,0,1,1,5.49,4.33l-6,7.56A3.48,3.48,0,0,1,168.85,120.27Z"/><path class="cls-3" d="M149.25,125.41a3.46,3.46,0,0,1-2-.61L141,120.49a3.5,3.5,0,0,1,3.93-5.79l6.34,4.31a3.5,3.5,0,0,1-2,6.4Z"/><path class="cls-3" d="M149.71,134.9h-.09l-5.1-.14a3.5,3.5,0,1,1,.18-7l5.1.14a3.5,3.5,0,0,1-.09,7Z"/><path class="cls-3" d="M151.54,160.68A3.47,3.47,0,0,0,148,164.1c-.89,42-14.69,58.05-18.71,61.86-1.54-50.43,8.2-104.41,15.59-137.38l-4.59,1.1a4.38,4.38,0,0,1-2.77-.23,687.22,687.22,0,0,0-13.57,86.21,3.42,3.42,0,0,0-2.1-.09c-3.63,1-8.4,3.61-12,5.81.87-22.38,11.42-55.65,11.54-56a3.5,3.5,0,0,0-6.67-2.13c-.54,1.69-13.21,41.66-11.82,64.74a3.51,3.51,0,0,0,4.75,3.06c-2.77,3.49-5.14,6.83-6,9.05a4,4,0,0,0-.21.7c-1.15,6.37,9.09,35,20,38.36a8.77,8.77,0,0,0,2.45.37c2.75,0,6.3-1.45,9.16-7.47,4.09-3.39,21-20.21,22-67.79A3.5,3.5,0,0,0,151.54,160.68Zm-43.35,41.63c1.83-3.72,9.46-12.63,15.1-18.8a408,408,0,0,0-.81,48.42.52.52,0,0,0,0,.11C116.48,228.54,108.09,207.43,108.19,202.31Z"/><path class="cls-3" d="M223.23,187.89a3.59,3.59,0,0,0-.59-.64c-1.76-1.48-5.31-3.09-9.25-4.59h.31a3.49,3.49,0,0,0,3.39-4.71c-7.6-20.55-34.15-47.68-35.28-48.82a3.5,3.5,0,1,0-5,4.91c.25.24,22.59,23.07,31.67,41.64-4.16.11-9.81.51-13.64,1.74a3.51,3.51,0,0,0-2.43,3.4C173.08,146.48,159.69,110.68,151.7,86l-.25.11h0a5.29,5.29,0,0,1-.69.15,1,1,0,0,1-.56,1,4.48,4.48,0,0,1-.87.3l-4.15,1c11.06,34.09,32.11,88.58,64.69,132.21a30.5,30.5,0,0,1-7-2.32c-10-4.61-34.32-21.59-44.92-79.5a3.5,3.5,0,1,0-6.88,1.26c11.19,61.13,37.9,79.52,48.86,84.59a32.55,32.55,0,0,0,13.21,3.3,13.11,13.11,0,0,0,6.55-1.49c3.21-1.85,5.41-5.46,6.55-10.73C228.3,206.13,226.28,192.13,223.23,187.89Zm-3.86,26.46a13.48,13.48,0,0,1-1.88,4.84,323.73,323.73,0,0,1-23.41-35.46,3.32,3.32,0,0,0,.92.41c7.7,2.11,19.49,5.94,22.76,8.19C219.23,195.12,221.15,206.1,219.37,214.35Z"/><path class="cls-3" d="M140,88.71l9.05-2.18a3.54,3.54,0,0,0,.67-.24,4.36,4.36,0,0,1-.77-.1h0L138.53,83.7h0l-.29-.08-.2-.08a.38.38,0,0,0-.1,0h0l0,0h0l-.06,0a4,4,0,0,1-.62-.31l-.1-.07c-.12-.08-.25-.15-.36-.24a3.51,3.51,0,0,0-.95,3.3c0,.06,0,.11.07.17a2.9,2.9,0,0,0,.18.52l0,.08a3.51,3.51,0,0,0,1.61,1.53v0A3.46,3.46,0,0,0,140,88.71Z"/><path class="cls-3" d="M152.27,79.16v0l0,0h0l-.15-.1a4.15,4.15,0,0,0-.53-.32,1.19,1.19,0,0,0-.26-.11,2.78,2.78,0,0,0-.48-.18h0l-3.05-.72-7.4-1.76h0a3.21,3.21,0,0,0-.53-.07,3.53,3.53,0,0,0-.56,0h-.1a3.51,3.51,0,0,0-2.57,1.62,3.34,3.34,0,0,0-.41,1,3.49,3.49,0,0,0,1.41,3.7h0l0,0,.18.12a3.61,3.61,0,0,0,.44.22,3,3,0,0,0,.53.19h0l10.45,2.48h0a3.6,3.6,0,0,0,.55.07h.29l.34,0a3.66,3.66,0,0,0,.73-.16h0a3.54,3.54,0,0,0,1.72-1.26l0,0a3.16,3.16,0,0,0,.34-.63c0-.09.07-.18.1-.27a1.61,1.61,0,0,0,.09-.29,3.36,3.36,0,0,0,.09-1,.78.78,0,0,0,0-.16,1.36,1.36,0,0,0,0-.29A3.53,3.53,0,0,0,152.27,79.16Z"/><path class="cls-3" d="M151.73,74.27a3.49,3.49,0,0,0-1.14-.61l-.26-.07-1.84-.43h0L143.41,72a3.51,3.51,0,0,0-3.1.8v0a3.48,3.48,0,0,0-1.06,1.78,2.48,2.48,0,0,0,0,.27,3.75,3.75,0,0,1,.58,0h.07a3.76,3.76,0,0,1,.73.1L145.22,76l5.84,1.39.29.08,0,0a4.3,4.3,0,0,1,.73.3s0,0,.06,0l.05,0a4,4,0,0,1,.43.29l.1.07a2.76,2.76,0,0,0,.16-.51A3.51,3.51,0,0,0,151.73,74.27Z"/><path class="cls-3" d="M140,71.77a4.51,4.51,0,0,1,3.62-.76l5.1,1.17c2.31-9.26,3.89-14.72,4-14.94a3.5,3.5,0,1,0-6.72-2c0,.13-.65,2.24-1.65,6-1.16-4.31-1.75-6.78-1.78-6.93a3.5,3.5,0,1,0-6.82,1.6C135.78,56.15,137.18,62,140,71.77Z"/><path class="cls-3" d="M213.09,121.89c-.34-1.06-8.38-26-20.49-32.34a11.65,11.65,0,0,0-12.23.5c-4.94,3.09-9.54,3.42-13.66,1-5.41-3.18-8.06-9.76-8.33-10.83-.54-2.2-2.29-3.39-3.91-2.66a3.18,3.18,0,0,0-1.35,1.23l.28.28,0,0a4.44,4.44,0,0,1,.86,1.9,2.2,2.2,0,0,1,0,.37l0,.21a4.6,4.6,0,0,1-.12,1.28,11.23,11.23,0,0,1-.24.72,4.57,4.57,0,0,1-.45.82c-.12.15-.24.29-.37.43,1.54,4,5.27,10.49,11.11,13.93s12.19,3,18.7-1.06a7,7,0,0,1,7.42-.3c8,4.17,15,21.5,17,27.82a3.21,3.21,0,0,0,2.84,2.54,2.42,2.42,0,0,0,1.22-.34C213,126.49,213.77,124,213.09,121.89Z"/></svg>