<?xml version="1.0" encoding="utf-8"?>
<!-- Generator: Adobe Illustrator 21.0.2, SVG Export Plug-In . SVG Version: 6.00 Build 0)  -->
<svg version="1.1" id="Reversed_to_Color_1" xmlns="http://www.w3.org/2000/svg" xmlns:xlink="http://www.w3.org/1999/xlink"
	 x="0px" y="0px" viewBox="0 0 200.6 88.9" style="enable-background:new 0 0 200.6 88.9;" xml:space="preserve">
<style type="text/css">
	.st0{fill:#DF2027;}
	.st1{fill:#F7941D;}
	.st2{fill:#1E95D3;}
	.st3{fill:#3E484F;}
</style>
<title>logo</title>
<g id="P_x5F_CMYK">
	<path id="Red" class="st0" d="M68.5,83.9c0,2.5-1.7,4.6-4.5,4.6c-2.8,0-4.5-2.1-4.5-4.6V79c0-2.5,1.7-4.6,4.5-4.6
		c2.8,0,4.5,2,4.5,4.6v0.1h-2.3V79c0-1.3-0.8-2.4-2.2-2.4c-1.4,0-2.2,1.1-2.2,2.4v4.8c0,1.3,0.8,2.4,2.2,2.4c1.4,0,2.2-1.1,2.2-2.4
		v-0.2h2.3V83.9z M81.3,85.3h-4.1l-0.8,2.8H74l4.1-13.4h2.3l4.1,13.4h-2.4L81.3,85.3z M80.7,83.2l-1.4-5.1l-1.4,5.1H80.7z
		 M96.3,78.7c0-1.3-1-2-2-2c-0.9,0-1.8,0.5-1.8,1.5c0,1,0.8,1.5,1.8,1.9l1.2,0.5c1.9,0.7,3.2,1.9,3.2,4c0,2.6-2.2,4-4.4,4
		c-2.3,0-4.5-1.5-4.5-4.4v-0.3h2.3v0.3c0,1.3,0.9,2.2,2.2,2.2c1.2,0,2.1-0.6,2.1-1.7c0-1.1-0.9-1.6-1.9-2l-1.2-0.5
		c-2.1-0.8-3.1-1.9-3.1-3.8c0-2.2,1.7-3.8,4.1-3.8c2.4,0,4.2,1.7,4.2,4.1v0.4h-2.3V78.7z M108.3,74.8v13.4H106V74.8H108.3z
		 M124.6,74.8v13.4h-2.1l-4.8-8.8v8.8h-2.3V74.8h2.2l4.7,8.5v-8.5H124.6z M141,79v4.8c0,2.5-1.7,4.6-4.6,4.6c-2.9,0-4.6-2.1-4.6-4.6
		V79c0-2.5,1.7-4.6,4.6-4.6C139.2,74.4,141,76.5,141,79z M134,79v4.8c0,1.3,0.8,2.4,2.3,2.4c1.5,0,2.3-1.1,2.3-2.4V79
		c0-1.3-0.8-2.4-2.3-2.4C134.8,76.6,134,77.7,134,79z M97.1,31.9c-0.2,0.1-0.3,0.3-0.5,0.4c-0.3,0-0.5,0-0.8-0.1
		c0.3-0.5,0.6-1,0.9-1.4c0.7-0.9,1.5-1.8,2.2-2.7c0.4,0.3,0.8,0.7,1.1,1C99.1,30,98.1,31,97.1,31.9z M100.6,27.4
		c-0.2-0.2-0.3-0.4-0.5-0.5c1.4-1.5,2.8-2.9,4.2-4.3c0.1-0.1,0.2-0.2,0.2-0.4c0-0.4,0-0.9-0.1-1.3c-0.1-1.5-0.1-3.1-0.2-4.6
		c0-0.9,0-1.8-0.1-2.6c0-0.3,0.1-0.6,0.4-0.7c0.4-0.2,0.9-0.4,1.3-0.5c1-0.3,2-0.5,3-0.7c1.5-0.3,3-0.7,4.4-1.1c0.1,0,0.1,0,0.2-0.1
		c0-0.2,0-0.5,0-0.7c-0.1-0.9-0.3-1.8-0.9-2.6c-0.6-0.8-1.2-1.6-1.9-2.3c-0.3-0.3-0.6-0.5-0.9-0.7c-0.1-0.1-0.2-0.1-0.4-0.2
		c0,0.1,0,0.2,0,0.2c0,0.3-0.1,0.6-0.2,1c-0.1,0.4-0.3,0.7-0.6,0.9c-0.3,0.2-0.6,0.4-0.9,0.5c-0.1,0-0.1,0.1-0.2,0.1
		c-0.2,0.2-0.3,0.5-0.3,0.8c0,0.1-0.1,0.3-0.1,0.4c-0.1,0.3-0.3,0.5-0.6,0.5c-0.2,0-0.5,0-0.7,0c-0.1,0-0.2-0.1-0.2-0.2
		c0-0.2-0.1-0.4-0.1-0.6c0-0.6,0-1.1,0-1.7c0-0.7,0.1-1.3,0.1-2c0-0.6,0.1-1.1,0.1-1.7c0-0.2,0-0.3-0.1-0.4
		c-0.2-0.2-0.4-0.5-0.6-0.7c0,0-0.1-0.1-0.1-0.2c0.5,0.1,0.9,0.1,1.3,0.2c0-0.1,0-0.1-0.1-0.1c-0.2-0.3-0.3-0.6-0.5-0.8
		c0-0.1-0.1-0.1-0.1-0.2c0.1,0,0.1,0,0.2,0.1c0.5,0.3,1.1,0.5,1.6,0.8c0.1,0.1,0.2,0.1,0.3,0.1c0.8,0,1.7,0,2.5,0
		c1.7,0.1,3.3,0.5,4.8,1.3c0.9,0.5,1.9,1.1,2.7,1.8c1,0.8,1.9,1.7,2.6,2.7c0.3,0.4,0.6,0.8,0.9,1.2c0.8,0.9,1.8,1.5,3,1.8
		c0.8,0.2,1.6,0.3,2.5,0.4c0.9,0.1,1.8,0.1,2.7,0c0.8-0.1,1.6-0.2,2.3-0.3c0.9-0.1,1.8-0.1,2.7-0.1c0.4,0,0.8,0.1,1.2,0.1
		c0,0,0,0,0.1,0c0.1-0.3,0.2-0.5,0.3-0.8c0.2-0.5,0.4-1.1,0.5-1.6c0.1-0.8,0.1-1.6,0.1-2.4c0-1-0.1-1.9-0.3-2.9c0,0,0-0.1,0-0.1
		c0,0,0,0,0,0c0.1,0,0.2,0,0.3,0.1c0.1,0.1,0.2,0.3,0.3,0.4c0.2,0.4,0.3,0.9,0.4,1.3c0.2,0.8,0.3,1.6,0.3,2.4c0,0.7-0.1,1.4-0.3,2.1
		c0,0,0,0.1,0,0.1c0,0,0,0,0,0c0-0.1,0.1-0.1,0.1-0.2c0.8-1.3,1.3-2.8,1.6-4.3c0.1-0.7,0.2-1.3,0.4-2c0,0,0-0.1,0-0.2
		c0.1,0.1,0.1,0.2,0.1,0.2c0.1,0.2,0.1,0.4,0.1,0.6c0.1,0.6,0,1.1,0,1.7c0,0.5-0.1,0.9-0.2,1.4c-0.2,1-0.6,1.8-1.2,2.7
		c0,0-0.1,0.1-0.1,0.2c0.1,0,0.1-0.1,0.2-0.1c0.6-0.4,1.1-0.9,1.5-1.5c0.6-0.8,1.1-1.6,1.5-2.4c0.2-0.3,0.3-0.5,0.5-0.8
		c0,0.1,0,0.1,0,0.2c0,0.4-0.1,0.8-0.2,1.1c-0.3,0.9-0.7,1.7-1.2,2.5c-0.3,0.5-0.8,0.9-1.3,1.3c-0.4,0.3-0.9,0.6-1.4,0.9
		c-0.1,0-0.1,0.1-0.2,0.1c0.1,0,0.2,0,0.3,0c0.4,0,0.7-0.1,1.1-0.1c0.7-0.1,1.3-0.2,2-0.1c0.6,0.1,1.2,0.2,1.8,0.4
		c1.2,0.3,2.3,0.8,3.4,1.3c0.7,0.4,1.5,0.7,2.2,1c0.9,0.3,1.8,0.5,2.7,0.7c1.8,0.3,3.6,0.3,5.4,0.2c0,0,0.1,0,0.1,0c0,0,0,0,0,0
		c-0.1,0-0.1,0.1-0.2,0.1c-1.5,1.1-3.2,1.8-5,2.2c-1.1,0.2-2.2,0.3-3.2,0.3c-0.8,0-1.5-0.1-2.3-0.4c-0.6-0.2-1.2-0.5-1.7-0.8
		c-1.2-0.7-2.4-1.5-3.5-2.4c-0.4-0.3-0.9-0.7-1.4-0.9c-0.4-0.2-0.9-0.4-1.3-0.4c-0.1,0-0.1,0-0.2,0c0,0.1,0.1,0.3,0.1,0.4
		c0.2,0.6,0.3,1.2,0.4,1.8c0,0.4,0,0.7,0,1.1c-0.1,0.5-0.1,1-0.2,1.6c0.1,0,0.1,0.1,0.2,0.1c4.1,2.2,8.2,4.5,12.4,6.7
		c2.6,1.4,5.2,2.8,7.8,4.2c0.4,0.2,0.8,0.4,1.2,0.5c0.1,0,0.1,0.1,0.2,0.1c-0.2,0.1-0.4,0.1-0.6,0.2c-0.3,0.1-0.5,0.1-0.8,0
		c-6.5-2.6-13-5.3-19.5-7.9c-0.1,0-0.1,0-0.2-0.1c0,0,0,0,0,0c0,0,0.1,0.1,0.1,0.1c2.1,1.9,4.3,3.8,6.5,5.5c1,0.8,2,1.5,3,2.3
		c1.6,1.3,3.3,2.5,4.9,3.8c0.1,0.1,0.3,0.2,0.4,0.3c0.4,0.3,0.8,0.6,1.3,0.7c0.1,0,0.1,0,0.2,0.1c0,0,0,0,0,0
		c-0.1,0.2-0.2,0.3-0.3,0.5c-0.1,0-0.2,0-0.3,0c0.1-0.1,0.2-0.1,0-0.2c-0.1,0-0.2,0-0.4,0c-4.6-2.7-9.3-5.3-13.9-8.1
		c-1.1-0.7-2.2-1.4-3.4-2.1c-2.3-1.5-4.7-2.8-7.1-4.1c-1-0.5-2-1.1-3-1.5c-0.5-0.2-1.1-0.3-1.6-0.4c-0.8,0-1.6,0.1-2.4,0.2
		c-1.7,0.3-3.4,0.7-5.1,1.2c-1.5,0.4-2.8,1-4.2,1.7c-2.3,1.2-4.6,2.4-6.8,3.8c-0.2,0.1-0.2,0.1-0.1,0.3c0.1,0.3,0.1,0.7,0.2,1
		c0,0.1,0.1,0.2,0.1,0.4c0.4,0.8,0.9,1.7,1.3,2.5c0,0.1,0.1,0.2,0.1,0.3c0.1,0.2,0.1,0.3,0,0.5c-0.1,0.1-0.2,0.2-0.3,0
		c-0.1-0.1-0.2-0.2-0.2-0.3c-0.8-1.1-1.6-2.2-2.4-3.3c-0.1-0.1-0.1-0.2-0.2-0.3c0,0-0.1,0-0.1,0.1c-0.7,0.4-1.4,0.9-2,1.3
		c-0.6,0.4-1.1,0.9-1.6,1.3c-0.2,0.2-0.4,0.4-0.6,0.5C101.1,27.9,100.9,27.6,100.6,27.4z M106.4,20.2c0,0.1,0,0.2,0,0.3
		c0.1-0.1,0.1-0.1,0.2-0.1c0.2-0.2,0.4-0.4,0.6-0.6c1-0.9,1.9-1.7,3-2.5c1-0.7,2-1.4,2.9-2c0.1,0,0.1-0.1,0.2-0.1
		c-2.3,0.1-4.6,0.3-6.8,0.6c0,0.1,0,0.1,0,0.1C106.5,17.3,106.5,18.8,106.4,20.2z M155.2,33.3C155.2,33.3,155.2,33.3,155.2,33.3
		c0.1,0,0.2,0,0.2,0c0,0,0,0,0,0C155.3,33.3,155.2,33.3,155.2,33.3z M100.1,16.5l-2.8,2.8h5.6L100.1,16.5z"/>
	<polygon id="Orange" class="st1" points="100.1,13.5 97.3,16.3 103,16.3 	"/>
	<path id="Brilliant_Blue" class="st2" d="M76.3,63.9l-5.9,0l3-3L76.3,63.9z M175.4,42c-1-0.4,0.2,0.2-0.8-0.1
		c0.3,0.1,0.5,0.1,0.8,0.2C175.2,42.1,175.1,42,175.4,42z M172.2,41.3c0,0,0.4,0.2,0,0.1C171.9,41.3,171.9,41.3,172.2,41.3z
		 M154.5,38.1c0,0,0,0.1-0.1,0.1C154.5,38.2,154.2,38.1,154.5,38.1z M151,38.5c0.2,0,0.3,0,0.5,0c-0.1,0-0.1,0.1-0.2,0.1
		C151.2,38.6,151.1,38.5,151,38.5z M180.3,43.9c0.1,0,0.1,0,0.2,0C180.4,44,180.4,44,180.3,43.9C180.3,44,180.3,44,180.3,43.9z
		 M180,43.9c0.1,0,0.1,0,0.2,0C180.1,43.9,180,43.9,180,43.9z M179.2,43.8C179.2,43.8,179.2,43.8,179.2,43.8c-0.4,0-0.7-0.2-0.9-0.2
		C178.6,43.5,179.1,43.8,179.2,43.8z M179.2,43.8C179.3,43.7,179.3,43.7,179.2,43.8C179.3,43.7,179.3,43.7,179.2,43.8z M94.3,32.5
		c-0.7-0.2,0.6-0.2,0.1-0.3C95,32.3,94.3,32.5,94.3,32.5z M180.3,43.9c0,0-0.1,0-0.1,0C180.2,43.9,180.3,43.9,180.3,43.9
		C180.3,43.9,180.3,43.9,180.3,43.9z M94.3,32.5C94.3,32.5,94.3,32.5,94.3,32.5C94.3,32.5,94.3,32.5,94.3,32.5
		C94.4,32.5,94.4,32.5,94.3,32.5C94.4,32.5,94.4,32.5,94.3,32.5C94.3,32.5,94.3,32.5,94.3,32.5z M103,22.4h-5.6l2.8-2.8L103,22.4z
		 M149.1,37.2c-0.1,0-0.3,0-0.4,0c0.2,0,0.4,0,0.6,0C149.2,37.2,149.2,37.2,149.1,37.2z M119.2,33.9c0-0.1-0.1-0.1-0.1-0.2
		C119.5,33.7,119.4,33.9,119.2,33.9z M96.6,32.3c-0.3,0-0.5,0-0.8-0.1c-0.2,0-0.4,0-0.6,0c0.5,0.4-0.4,0-0.4,0.3c-0.3,0-0.5,0-0.5,0
		c0,0,0,0,0,0v0c-0.4-0.1-0.7-0.2-1.1-0.2c-0.3-0.1,0.3-0.1,0.3-0.1c-0.8-0.1-0.3-0.2-0.8-0.3C92.9,32,92.5,32,92,32
		c0.2,0.1,0.4,0.1,0.6,0.2c-1.1,0.2-0.9-0.3-2-0.2c0.1,0,0.2-0.1,0.3-0.1c-0.6,0-2.1-0.1-2.6,0.2c-0.1,0-0.2-0.1,0-0.2
		c-1.3-0.1-3,0.2-4,0.1c0,0,0.1-0.1,0.1-0.1c-0.3,0-0.4,0.2-0.7,0.1c0,0,0.1-0.1,0-0.1c-0.1,0-0.7,0.1-1,0.1c0.1,0,0.2-0.1,0.3-0.1
		c-1.3-0.1-2,0.2-3.1,0.3c0-0.3-1-0.3-1.5-0.4c0,0,0,0,0,0c-1.5,0-2.6,0.2-4,0.3c-0.9-0.3-3-0.1-4.4-0.2c0.2,0,0,0.2-0.3,0.2
		c-0.3,0-0.9,0.2-0.9,0c0,0,0.1,0,0.1,0c-0.3-0.2-0.9-0.1-1.5-0.1c0,0.1-0.1,0.2-0.1,0.3c-1.4-0.4-3.6,0.2-4.4-0.1
		c-0.3,0.1-0.7,0.1-1.1,0.2c0-0.1,0-0.1,0-0.2c-0.9,0-1.4,0-2.5,0.1c0.1,0,0.2-0.1,0.2-0.1c-0.6,0-0.8,0.5-1.4,0.5
		c-0.1-0.1-0.1-0.2-0.2-0.2c-1.1,0-2.3-0.1-3.4,0.2c0,0,0-0.1,0.2-0.1c-0.5,0-2.1-0.1-1.9,0.3c0-0.2-1.2,0-1.8,0.2
		c0-0.1,0.1-0.1,0.1-0.2c-0.5,0.2-0.5,0.3-1.2,0.4c-0.2,0-0.2-0.1,0.1-0.1c-0.6-0.1-0.4,0.2-1.1,0.1c0.1,0,0.2-0.1,0.3-0.1
		c-0.6,0-0.5,0.1-0.8,0.2c-0.4,0.1-1.1,0-1.2-0.1c-0.1,0.1-0.4,0.2-0.7,0.2c0-0.1,0.1-0.1,0.1-0.1c-0.7,0-1.2,0.1-1.6,0.2
		c0,0,0,0,0,0c0.1,0,0.2-0.1,0.2-0.1c0.3,0,0.4,0,0.5,0c0-0.1-0.1-0.1-0.2-0.1c4.6-2.7,9.2-5.3,13.8-8.1c1.1-0.7,2.2-1.4,3.4-2.1
		c2.3-1.5,4.7-2.8,7.1-4.1c1-0.5,2-1.1,3-1.5c0.5-0.2,1.1-0.3,1.6-0.4c0.8,0,1.6,0.1,2.4,0.2c1.7,0.3,3.4,0.7,5.1,1.2
		c1.5,0.4,2.8,1,4.2,1.7c2.3,1.2,4.6,2.4,6.8,3.8c0.2,0.1,0.2,0.1,0.1,0.3c-0.1,0.3-0.1,0.7-0.2,1c0,0.1-0.1,0.2-0.1,0.4
		c-0.4,0.8-0.9,1.7-1.3,2.5c0,0.1-0.1,0.2-0.1,0.3c-0.1,0.2-0.1,0.3,0,0.5c0.1,0.1,0.2,0.2,0.3,0c0.1-0.1,0.2-0.2,0.2-0.3
		c0.8-1.1,1.6-2.2,2.4-3.3c0.1-0.1,0.1-0.2,0.2-0.3c0,0,0.1,0,0.1,0.1c0.7,0.4,1.4,0.9,2,1.3c0.6,0.4,1.1,0.9,1.6,1.3
		c0.2,0.2,0.4,0.4,0.6,0.5c0.4,0.3,0.8,0.7,1.1,1c1,0.9,2,1.8,3,2.8c0.2,0.2,0.5,0.4,0.7,0.7c0.2,0,0.5,0,0.7-0.1
		c-0.3-0.6-0.7-1.1-1.1-1.7c-0.7-0.9-1.5-1.8-2.2-2.7c-0.2-0.2-0.4-0.5-0.6-0.7c-0.2-0.2-0.3-0.4-0.5-0.5c-1.4-1.5-2.8-2.9-4.2-4.3
		c-0.1-0.1-0.2-0.2-0.2-0.4c0-0.4,0-0.9,0.1-1.3c0.1-1.5,0.1-3.1,0.2-4.6c0-0.9,0-1.8,0.1-2.6c0-0.3-0.1-0.6-0.4-0.7
		c-0.4-0.2-0.9-0.4-1.3-0.5c-1-0.3-2-0.5-3-0.7c-1.5-0.3-3-0.7-4.4-1.1c-0.1,0-0.1,0-0.2-0.1c0-0.2,0-0.5,0-0.7
		C86.7,8.9,87,8,87.5,7.2c0.6-0.8,1.2-1.6,1.9-2.3c0.3-0.3,0.6-0.5,0.9-0.7c0.1-0.1,0.2-0.1,0.4-0.2c0,0.1,0,0.2,0,0.2
		c0,0.3,0.1,0.6,0.2,1c0.1,0.4,0.3,0.7,0.6,0.9c0.3,0.2,0.6,0.4,0.9,0.5c0.1,0,0.1,0.1,0.2,0.1c0.2,0.2,0.3,0.5,0.3,0.8
		C93,7.7,93,7.8,93,8c0.1,0.3,0.3,0.5,0.6,0.5c0.2,0,0.5,0,0.7,0c0.1,0,0.2-0.1,0.2-0.2c0-0.2,0.1-0.4,0.1-0.6c0-0.6,0-1.1,0-1.7
		c0-0.7-0.1-1.3-0.1-2c0-0.6-0.1-1.1-0.1-1.7c0-0.2,0-0.3,0.1-0.4c0.2-0.2,0.4-0.5,0.6-0.7c0,0,0.1-0.1,0.1-0.2
		c-0.5,0.1-0.9,0.1-1.3,0.2c0-0.1,0-0.1,0.1-0.1c0.2-0.3,0.3-0.6,0.5-0.8c0-0.1,0.1-0.1,0.1-0.2c-0.1,0-0.1,0-0.2,0.1
		c-0.5,0.3-1.1,0.5-1.6,0.8C92.6,1,92.5,1,92.4,1c-0.8,0-1.7,0-2.5,0c-1.7,0.1-3.3,0.5-4.8,1.3c-0.9,0.5-1.9,1.1-2.7,1.8
		c-1,0.8-1.9,1.7-2.6,2.7c-0.3,0.4-0.6,0.8-0.9,1.2c-0.8,0.9-1.8,1.5-3,1.8c-0.8,0.2-1.6,0.3-2.5,0.4c-0.9,0.1-1.8,0.1-2.7,0
		c-0.8-0.1-1.6-0.2-2.3-0.3c-0.9-0.1-1.8-0.1-2.7-0.1c-0.4,0-0.8,0.1-1.2,0.1c0,0,0,0-0.1,0c-0.1-0.3-0.2-0.5-0.3-0.8
		c-0.2-0.5-0.4-1.1-0.5-1.6c-0.1-0.8-0.1-1.6-0.1-2.4c0-1,0.1-1.9,0.3-2.9c0,0,0-0.1,0-0.1c0,0,0,0,0,0c-0.1,0-0.2,0-0.3,0.1
		c-0.1,0.1-0.2,0.3-0.3,0.4c-0.2,0.4-0.3,0.9-0.4,1.3c-0.2,0.8-0.3,1.6-0.3,2.4c0,0.7,0.1,1.4,0.3,2.1c0,0,0,0.1,0,0.1c0,0,0,0,0,0
		c0-0.1-0.1-0.1-0.1-0.2C62,7,61.5,5.6,61.2,4.1c-0.1-0.7-0.2-1.3-0.4-2c0,0,0-0.1,0-0.2C60.7,2,60.7,2,60.6,2.1
		c-0.1,0.2-0.1,0.4-0.1,0.6c-0.1,0.6,0,1.1,0,1.7c0,0.5,0.1,0.9,0.2,1.4c0.2,1,0.6,1.8,1.2,2.7c0,0,0.1,0.1,0.1,0.2
		c-0.1,0-0.1-0.1-0.2-0.1c-0.6-0.4-1.1-0.9-1.5-1.5c-0.6-0.8-1.1-1.6-1.5-2.4c-0.2-0.3-0.3-0.5-0.5-0.8c0,0.1,0,0.1,0,0.2
		c0,0.4,0.1,0.8,0.2,1.1c0.3,0.9,0.7,1.7,1.2,2.5c0.3,0.5,0.8,0.9,1.3,1.3c0.4,0.3,0.9,0.6,1.4,0.9c0.1,0,0.1,0.1,0.2,0.1
		c-0.1,0-0.2,0-0.3,0c-0.4,0-0.7-0.1-1.1-0.1c-0.7-0.1-1.3-0.2-2-0.1c-0.6,0.1-1.2,0.2-1.8,0.4c-1.2,0.3-2.3,0.8-3.4,1.3
		c-0.7,0.4-1.5,0.7-2.2,1c-0.9,0.3-1.8,0.5-2.7,0.7c-1.8,0.3-3.6,0.3-5.4,0.2c0,0-0.1,0-0.1,0c0,0,0,0,0,0c0.1,0,0.1,0.1,0.2,0.1
		c1.5,1.1,3.2,1.8,5,2.2c1.1,0.2,2.2,0.3,3.2,0.3c0.8,0,1.5-0.1,2.3-0.4c0.6-0.2,1.2-0.5,1.7-0.8c1.2-0.7,2.4-1.5,3.5-2.4
		c0.4-0.3,0.9-0.7,1.4-0.9c0.4-0.2,0.9-0.4,1.3-0.4c0.1,0,0.1,0,0.2,0c0,0.1-0.1,0.3-0.1,0.4c-0.2,0.6-0.3,1.2-0.4,1.8
		c0,0.4,0,0.7,0,1.1c0.1,0.5,0.1,1,0.2,1.6c-0.1,0-0.1,0.1-0.2,0.1c-4.1,2.2-8.2,4.5-12.4,6.7c-2.6,1.4-5.2,2.8-7.8,4.2
		c-0.4,0.2-0.8,0.4-1.2,0.5c-0.1,0-0.1,0.1-0.2,0.1c0.2,0.1,0.4,0.1,0.6,0.2c0.3,0.1,0.5,0.1,0.8,0c6.5-2.6,13-5.3,19.5-7.9
		c0.1,0,0.1,0,0.2-0.1c0,0,0,0,0,0c0,0-0.1,0.1-0.1,0.1c-2.1,1.9-4.3,3.8-6.5,5.5c-1,0.8-2,1.5-3,2.3c-1.6,1.3-3.3,2.5-4.9,3.8
		c-0.1,0.1-0.3,0.2-0.4,0.3c-0.4,0.3-0.8,0.6-1.3,0.7c-0.1,0-0.1,0-0.2,0.1c0,0,0,0,0,0c0.1,0.1,0.1,0.2,0.2,0.3
		c-0.4,0.1-0.7,0.2-1.1,0.2c0,0-0.1,0-0.1,0c0,0,0,0,0.1,0c-0.1,0-0.3,0-0.4,0.1c-0.2,0-0.3,0-0.5,0c-0.1-0.1-0.7,0-1,0
		c0,0.2-0.4,0.2,0,0.3c0,0,0.1,0,0.3,0c0,0,0.1,0,0.1,0c0,0,0,0,0,0c0.2,0,0.5,0,0.8-0.1c-0.2,0.1-0.5,0.2-0.8,0.1
		c-0.2,0.1-0.3,0.2-0.4,0.3c-0.4-0.2-1.3-0.2-1.4-0.4c-0.9,0.2-2.2,0.2-2.8,0.6c-0.3,0.1-0.3-0.1-0.4-0.1c0.2,0,0.3-0.1,0.4-0.1
		c-0.5,0.1-1.6,0.2-1.7,0.4c-0.7,0,0.4-0.2-0.6-0.1c0,0,0.1,0,0.1-0.1c-1.9-0.2-3,0.8-5,0.6c0.1,0,0.2,0,0.2,0
		c-2.3,0-4.8,0.7-7.1,0.6c-0.7,0-0.7,0.2-1.1,0.3c-0.1-0.1-0.1-0.1-0.2-0.2c-0.2,0.1-0.4,0.2-0.7,0.3c-1,0.3-1.7-0.2-2.9,0.2
		c0.1,0,0.1,0.1,0.2,0.1c-0.4,0-1.4,0.2-1.3,0.1c0,0-0.1,0.1-0.3,0.1c0,0,0-0.1,0-0.1c-0.4,0.1-0.7,0.2-1.1,0.3
		c-0.8,0,0.1-0.4-1.1-0.2c-0.5,0.1-1.3,0.4-1.1,0.5c0.2,0,0.5,0,0.5,0.1c-0.1,0-0.3,0.1-0.4,0.1c0,0.3-0.3,0.6,0.7,0.6
		c0.2-0.1,0.5-0.2,0.7-0.2c0.1,0,0.2,0.1,0.2,0.1c-0.2,0-0.4,0.1-0.6,0.1c0.4,0.1,0.6-0.1,0.8-0.2c0.1,0.1,0.2,0.1,0.3,0.1
		c0.2-0.1,0.4-0.2,0.7-0.3c0.1,0.1-0.3,0.2,0.2,0.2c0.3-0.2-0.3-0.2,0.2-0.3c0.4,0.1,0.3,0.2,0.7,0c0.1,0.1,0,0.1-0.2,0.2
		c0.3-0.1,0.9-0.1,1.1-0.3c0.4,0.1,1.2-0.2,1.2,0.1c0.1-0.1,0.6-0.3,0.9-0.3c-0.6,0.4,1.2-0.1,1.1,0.2c0.4-0.3,1.6-0.3,2.3-0.5
		c0,0-0.1,0.1-0.2,0.1c0.4,0,0.6,0,0.9,0.1c0-0.2,0.7-0.3,1.1-0.5c0.6,0.2-0.3,0.3-0.1,0.5c0-0.2,0.9-0.3,0.7-0.4
		c0.4,0.1,0.4,0,0.6,0.2c0-0.3,0.4-0.1,0.7-0.3c0.6,0.1,0.2,0.2,0.8,0.1c0.3,0.1-0.3,0.2-0.3,0.2c0.7-0.1,0.3-0.2,0.4-0.4
		c0.8-0.1,0.4,0.1,0.7,0.2c0.5-0.1,0.9-0.3,1.2-0.4c0,0,0.1,0,0,0.1c0.5-0.2,1.6-0.2,2.2-0.4c0,0,0.1,0,0.1,0
		c-0.1-0.1-0.1-0.2-0.1-0.3c0.3,0,0.5-0.2,0.7-0.1c-0.2,0-0.2,0.1-0.3,0.1c0.1,0,0.2-0.1,0.3-0.1c0.3,0.2-0.4,0.1-0.4,0.2
		c0.6-0.1,1.3-0.3,1.8-0.3c0.1,0.2-1.1,0.2-0.5,0.3c-0.2,0-0.5,0-0.7,0c0.6,0.2-0.4,0,0.1,0.3c1,0,1.1-0.2,2-0.2
		c0.2-0.1-0.1-0.1,0.1-0.3c1.3-0.3,1.1,0.4,2.1,0.1c0.2-0.1,0.3-0.4,1-0.3c-0.1,0.1-0.2,0.2-0.2,0.2c0.9-0.1,0.5-0.4,1.5-0.3
		c-0.2,0.1-0.7,0.1-0.6,0.1c0.6,0.1,0.4-0.2,0.9-0.2c0,0.1,0.1,0.1,0.1,0.2c1-0.1,2.1-0.3,3.1-0.4c-0.1,0.1-0.2,0.1,0,0.2
		c1.4-0.2,2.9-0.2,4.3-0.1c0.2-0.1,0.3-0.1,0.5-0.2c0.1,0,0.2,0.1,0.1,0.1c0.5,0,0-0.1,0.3-0.2c0.3,0,0.4,0.1,0.2,0.1
		c0.9-0.2,2.6-0.4,3.5-0.3c-0.1,0-0.1,0-0.2,0.1c0.7,0,0.8-0.4,1.5-0.3c0,0-0.1,0-0.1,0c1.6,0,3.4-0.2,4.7,0c0.2-0.2,1.6,0,1.7-0.3
		c0.9,0.1,0.7,0.2,2,0.3c0.3,0,0.5-0.2,0.9-0.3c0,0.1,0,0.1,0,0.2c0.2-0.1,0.4-0.1,0.6-0.2c0.1,0.1,0.2,0.1,0.3,0.2
		c0.1,0,0.3,0,0.4-0.1c-0.2,0-0.3-0.1-0.3-0.1c0.6-0.1,1.5,0.1,1.6,0.2c0.5-0.1,1-0.1,1.5-0.2c0,0.1-0.2,0.1-0.3,0.1
		c0.6-0.1,0.1,0.2,0.7,0c-0.1,0,0.1-0.1,0.1-0.1c0.4,0.1,1.2,0.1,1.8,0c0,0-0.1,0.1-0.1,0.1c1.1,0,2.3-0.1,3.6-0.1
		c-0.4-0.1-0.3-0.3,0-0.3c0,0.1,0.1,0.1,0.1,0.2c0.2-0.1-0.4-0.1,0.1-0.2c0.5,0,0.3,0.2,0,0.3c0.2,0,0.4,0,0.6-0.1
		c0,0.1-0.1,0.1-0.1,0.2c0.2-0.1,1,0.2,1.3,0c0,0,0,0,0,0.1c1.2,0,1.8-0.1,2.8-0.1c0-0.2,0.4-0.1,0.7-0.3c0.7,0.1,1.6,0.2,2.5,0.2
		c0.6-0.1,0.2-0.1,0.5-0.2c0,0.1,0.9,0.1,0.5,0.2c1.1,0,1.4,0,2.7-0.1c-0.1-0.1-0.3-0.1-0.2-0.1c0.2,0,0.6,0.1,0.5,0.1
		c0,0,0,0-0.1,0c1.2-0.2,2.6,0.2,3.8,0.3c0.5,0,1-0.1,1.5-0.1c0.2,0,0.4,0,0.6-0.1c0,0,0.1,0,0.1,0c0.6,0,1.2-0.1,1.7-0.2
		c-0.1,0.1-0.2,0.1-0.3,0.2c1.2,0.2,0.7-0.4,1.7-0.4c2.4-0.1,4.9,0,7.3-0.1c-0.6-0.1-1.7-0.1-2.1-0.3C98.4,32.5,97.6,32.4,96.6,32.3
		z M93.7,15.8c0,0.1,0,0.1,0,0.1c0,1.4,0.1,2.8,0.1,4.3c0,0.1,0,0.2,0,0.3c-0.1-0.1-0.1-0.1-0.2-0.1c-0.2-0.2-0.4-0.4-0.6-0.6
		c-1-0.9-1.9-1.7-3-2.5c-1-0.7-2-1.4-2.9-2c-0.1,0-0.1-0.1-0.2-0.1C89.2,15.3,91.5,15.5,93.7,15.8z M42.4,33.2
		C42.3,33.2,42.3,33.2,42.4,33.2C42.3,33.2,42.4,33.2,42.4,33.2c0.3-0.1,0.3-0.1,0.4,0C42.6,33.2,42.5,33.2,42.4,33.2z M43.6,34.2
		c0.1,0,0.2,0,0.3,0c0,0,0,0,0,0C43.8,34.1,43.7,34.2,43.6,34.2z M44.5,33.2c0.1,0,0.3,0,0.4,0c0,0,0.1,0.1,0.1,0.1
		c-0.1,0-0.2,0-0.4,0C44.6,33.2,44.5,33.2,44.5,33.2z M44.7,34.1c0-0.1,0-0.1,0.1-0.1C44.7,34,45,34,45.2,34
		C45.1,34,44.9,34.1,44.7,34.1z M66.8,32c-0.1,0-0.2,0-0.2,0c0.2,0,0.3,0,0.5-0.1C66.9,31.9,66.9,32,66.8,32z M42.2,33.4
		C42.1,33.4,42.1,33.4,42.2,33.4c-0.1,0-0.2,0-0.2,0c0,0,0.1,0,0.1,0C42.1,33.4,42.1,33.4,42.2,33.4z M13.9,36.6
		C13.9,36.6,13.9,36.6,13.9,36.6c0,0.1-0.1,0.1-0.1,0.1C13.8,36.6,13.8,36.6,13.9,36.6z M63.2,33.5c0,0,0.1,0,0.1,0c0,0,0,0,0,0
		C63.3,33.5,63.2,33.5,63.2,33.5z M19.8,36.7C19.8,36.7,19.8,36.7,19.8,36.7C19.8,36.7,19.8,36.7,19.8,36.7z M33,35.1
		c0.1,0,0.1,0.1,0.2,0.1C32.4,35.3,33.1,35.2,33,35.1z M64.8,33.4c0,0-0.1,0-0.2,0C64.7,33.4,64.7,33.4,64.8,33.4z M171.4,41.2
		c0,0.1,0,0.1,0,0.1c-0.1,0-0.2,0-0.3,0.1C171.2,41.3,171.3,41.2,171.4,41.2z M179.4,43.1c0,0-0.1,0-0.1,0
		C179.3,43.1,179.4,43.1,179.4,43.1z M160,39.3C160,39.3,160,39.3,160,39.3C160,39.3,160,39.3,160,39.3C160,39.3,160,39.3,160,39.3z
		 M182.5,44.1C182.6,44.1,182.6,44.1,182.5,44.1C182.6,44.1,182.5,44.1,182.5,44.1z M166.6,40.2c0,0-0.1,0-0.1,0.1c0,0-0.1,0-0.1,0
		C166.5,40.2,166.6,40.2,166.6,40.2z M159.4,39.1c0.1,0,0.3,0.1,0.4,0.1C159.6,39.2,159.4,39.2,159.4,39.1z M162.8,39.5
		C162.8,39.5,162.8,39.5,162.8,39.5C162.8,39.5,162.8,39.5,162.8,39.5z M106.2,33.5C106.2,33.5,106.2,33.5,106.2,33.5
		C106.2,33.5,106.2,33.5,106.2,33.5L106.2,33.5C106.2,33.5,106.2,33.5,106.2,33.5z M182.6,44.5c0,0-0.1,0-0.1,0
		C182.5,44.4,182.5,44.4,182.6,44.5z M159.8,39.2c0.1,0,0.1,0,0.2,0C159.9,39.3,159.9,39.3,159.8,39.2z M185.2,45
		c-0.1,0-0.3,0-0.4,0c0.1-0.1,0.1-0.1,0.2-0.2C185.3,44.8,185.3,44.9,185.2,45z M172.3,42.2C172.3,42.2,172.3,42.2,172.3,42.2
		C172.3,42.2,172.3,42.2,172.3,42.2C172.3,42.2,172.3,42.2,172.3,42.2z M181.8,44c-0.4,0-0.9,0-1.3-0.1c0.2,0,0.3-0.1,0.4-0.1
		c-0.5-0.2-0.4,0-0.7,0c-0.1-0.1-0.2-0.2-0.1-0.2c-0.5,0-0.8-0.1-1.3-0.3c0,0,0.6,0,0.3-0.2c-0.9-0.1-1.1,0.1-2.1,0
		c-1.1,0-2.1-0.6-2.9-0.6c-0.1,0.1,0.5,0.2,0,0.2c0.1-0.1-0.3-0.1-0.3-0.2c-0.6,0.1-0.8-0.2-1.2-0.1c0.1,0-0.2-0.1-0.4-0.2
		c0.1-0.2-0.6-0.2,0.2-0.3c-0.8,0.1-1.4-0.3-2.1-0.1c0.1,0,0.1,0.1,0.2,0.1c-0.2-0.1-0.4-0.1-0.7-0.2c0.1,0,0.2,0.1,0.3,0.1
		c-0.1,0-0.3-0.1-0.4-0.1c0,0,0.1,0,0.1,0c0,0-0.1,0-0.1,0c0,0,0,0,0,0c-0.3-0.1-0.4-0.1-0.8-0.3c0.2,0,0.5,0.1,0.7,0
		c-0.4-0.2-0.9,0-1.4-0.1c0-0.1,0.5,0,0.4-0.1c-0.3-0.1-0.6,0-1-0.1c0,0,0,0,0.1-0.1c-0.8-0.3-0.4,0.3-1-0.1c0,0-0.1,0.1,0,0.1
		c-0.2-0.1-0.7-0.3-0.2-0.3c-0.3-0.1-0.6-0.1-0.8,0c0.2,0.1,0.3,0.1,0.4,0.3c-0.4,0-0.8-0.1-1.2-0.1c-0.1,0,0.1-0.1,0.3,0
		c-1.3-0.6-2.8-0.2-4.3-0.9c0.2,0.1-0.1,0.1-0.3,0.1c-0.5-0.1-1.3-0.2-1.7-0.4c0.1,0,0.1,0,0.2-0.1c-1.2-0.1-2.1-0.1-2.8-0.3
		c0,0,0-0.1,0.2-0.1c-0.6,0-1.2-0.5-1.4-0.2c0.1,0,0.1,0,0.2,0.1c-1.2-0.2-2.5-0.2-3.7-0.4c-0.3-0.2,0.7,0.1,0.5-0.2
		c-0.8-0.2-1.7-0.2-2.6-0.4c0.2,0,0.1,0,0.2,0c-0.9-0.3,0.1,0.2-0.7,0.1c0.1-0.1,0-0.1-0.2-0.2c-0.1,0-0.2,0.1-0.2,0.1
		c0,0,0-0.1,0.1-0.2c-0.4,0.1-1.4-0.1-1.6,0c-0.1-0.1,0.2-0.2,0.1-0.3c-0.4-0.1-0.7-0.1-1,0c0,0,0,0,0,0c-0.3-0.2-1-0.2-0.8-0.2
		c-0.7-0.2-0.1,0.1-0.7,0.1c0.2,0.1,0.4,0.1,0.6,0.2c-0.3,0-0.7-0.1-1-0.1c0.1,0,0.3,0,0.4,0c-0.5-0.1-1,0-1.5-0.1
		c0.1,0,0.2,0.1,0.2,0.1c-0.2,0-0.4,0-0.6,0c0-0.2-0.8-0.2-0.4-0.4c-1.1-0.3-1.9-0.1-2.9-0.2c0.1,0,0.1,0,0.1-0.1
		c-0.6-0.1-1-0.1-1.4,0c0.1-0.1,0.2-0.1,0.2-0.1c-0.7-0.1-0.5,0.1-1.3,0c0.2-0.1,0.2-0.1,0-0.2c0,0.1-0.2,0.1-0.3,0.1
		c0.7-0.4-0.9-0.3-0.5-0.6c-0.1,0.1-1.3,0.1-1,0.3c0.1,0,0.1,0,0.2,0c0,0.1-0.3,0-0.5,0c0.1,0,0.2,0,0.3,0c-1.2,0-2.3-0.3-3.6-0.3
		c0.1,0,0.6-0.1,0.3-0.1c-1.3-0.2-2-0.1-3.3-0.1c0-0.3,1.4,0.1,1.5-0.1c-1.4-0.1-2.8-0.1-4.3-0.1c-0.5-0.5-1.5,0-2.4-0.4
		c0.1,0.1-0.4,0.1-0.9,0.1c0.2-0.1-0.4-0.1-0.2-0.2c-0.5,0.1-1.7,0-1.7-0.2c-0.1,0.2-1-0.1-1.3,0.1c-0.6-0.1-1.2,0-1.9-0.2
		c0.2,0.2-0.5,0-0.9,0.1c0.1,0,0.1,0,0.1,0c-0.2-0.2-0.8,0.1-1.2-0.1c-0.2-0.1,0.1-0.1-0.2-0.2c0,0.1-1.1,0.2-1.5,0
		c0.2,0,0.2,0,0.3-0.1c-1.9,0.1-3.9-0.3-5.8-0.2c0.1-0.1,0.2-0.1,0.4-0.2c-1.2-0.3-0.8,0.3-1.8,0.2c-1.3-0.1-2.7-0.3-4-0.4
		c0.9,0,1.7,0,2.7,0c-0.5-0.3,0.4,0,0.3-0.4c0.3,0,0.5,0,0.5,0c0,0,0,0-0.1,0c0,0,0,0,0.1,0c0.1,0.1-0.6,0.3,0,0.3
		c-0.5-0.1,0.8-0.2,0-0.3c0,0,0,0,0,0c0.3,0.1,0.7,0.1,1,0.2c0.2,0.1-0.3,0.1-0.3,0.2c0.7,0,0.3,0.1,0.8,0.2
		c-0.1-0.1,0.3-0.2,0.7-0.2c-0.2,0-0.4-0.1-0.6-0.1c1-0.2,0.9,0.3,2,0c-0.1,0-0.2,0.1-0.3,0.1c0.5-0.1,2-0.1,2.5-0.4
		c0.1,0,0.2,0.1,0,0.2c1,0,2.2-0.2,3.1-0.2c0.1,0,0.1,0.1,0.1,0.1c0.3,0.1-0.7-0.1-0.2,0.2c0.9,0.2,0.6-0.3,1.4-0.1
		c-0.1,0-0.1,0-0.1,0c0.6,0,1.4,0.1,2,0.1c0.8,0.4,2.4,0.1,3.3,0.6c-0.3-0.1,0.2-0.1,0.2-0.2c0,0,0,0,0,0c0.3,0,0.4-0.1,0.5-0.1
		c0.3,0.1,0.9,0,1.1,0.1c0-0.1,0.3,0,0.6,0c-0.6,0-0.2,0.2-0.5,0.2c0.9,0.1,1-0.3,2-0.1c0.2,0.1,0.3,0.1,0.5,0.2c0.1-0.2,1,0,1-0.1
		c0.1,0.1,0.4,0.2,0.3,0.3c0.4,0,0.9,0.2,1.1,0c-0.1,0-0.2-0.1-0.4-0.1c1.1,0.2,1.8-0.1,2.7,0.2c0,0.1,0,0.2-0.1,0.3
		c0.6,0.2,1.1-0.1,1.6,0.2c-0.2-0.1-0.2-0.1,0.2-0.2c-0.2,0-0.6,0-1,0c0.3,0,0.5-0.1,0.8-0.1c-0.4,0-0.8,0-1.2,0
		c0.5-0.1,0.5,0,0.3-0.2c0.8,0,0.8,0.3,1.5,0.2c0.2,0.1,0,0.2,0.3,0.3c0.6-0.1,1.2,0.4,1.6,0.3c0.1,0.1-0.3,0-0.2,0.1
		c0.4,0,0.7,0.1,0.8,0c-0.1,0-0.2-0.1-0.3-0.1c0.3,0,0.4-0.1,0.9,0.1c0.3,0,0.6-0.2,0.2-0.2c0.2,0,0.5,0.1,0.3,0.2
		c0.9,0.1,0.5-0.3,1.3,0c-0.1,0-0.1,0-0.1,0c0.2,0.1,0.4,0.1,0.5,0.1c-0.8-0.1,0.2,0.3-0.7,0.1c0.1,0.2,0.7,0.1,1,0.2
		c0.5-0.1,0.1-0.3,0.3-0.3c0,0.1,0.2,0.1,0.4,0.1c-0.1-0.1-0.1-0.1-0.2-0.2c0.2,0,0.4,0,0.6,0c-0.1,0-0.3,0-0.4,0
		c0.4,0.1,1,0.4,1.7,0.3c-0.2,0-0.6,0.1-0.1,0.2c0.8,0,0.2,0.1,0.6,0.2c0.8,0.1,0.2-0.2,1.3,0c0.1,0,0-0.1-0.1-0.1
		c0.8,0.2,1.2,0.1,1.9,0.3c-0.3-0.1-0.6-0.2-0.1-0.2c-0.2,0.1,0.6,0.2,0.9,0.3c0,0,0.1,0,0.1-0.1c0.2,0.1,0,0.1-0.2,0.1
		c0,0-0.1-0.1-0.2-0.1c-0.4,0-0.3,0.3,0.3,0.4c0.6,0,0.6-0.2,0.5-0.3c0.8,0.2,0.8-0.2,1.6,0c0.2,0,0.7,0.4,1.3,0.5
		c0.3-0.1-0.7-0.2-0.4-0.3c0.9,0.5,2,0.1,3.2,0.5c-0.1,0.1-0.1,0.1-0.2,0.2c0.3,0.1,0.6,0.1,0.9,0.1c-0.1-0.1-0.3-0.1-0.4-0.2
		c0.3,0,1,0.1,0.7,0.3c0.7-0.1,0.8,0.1,1.4,0.2c-0.7-0.1,0,0-0.5,0c0.7,0.2,0.7,0.1,1.2,0.2c-0.1,0.1,0.1,0.2,0.3,0.2
		c0.5-0.1,1.2,0.1,1.8,0.1c0,0,0,0,0,0.1c1.1,0.1,2.1,0.6,3.2,0.6c0,0,0,0,0.1,0c0,0-0.1,0-0.1,0c-0.3-0.2,0.8,0,1.2,0
		c0.1,0.1,0.1,0.1,0.3,0.2c0-0.2,0.4,0,0.6-0.1c0.3,0.1-0.1,0.2,0.5,0.3c0.2,0,0.3-0.1,0.3-0.1c0.1,0.1,0.5,0.2,0.8,0.3
		c-0.1,0-0.3-0.1-0.4-0.1c-0.1,0.1,0.2,0.1,0.1,0.2c0.3,0.1,0.1-0.1,0.5,0c-0.1,0-0.2,0-0.4,0.1c0.1,0.1,0.3,0,0.4,0
		c-0.2,0-0.2,0.1-0.2,0.2c0.9,0.1,0.2-0.3,0.3-0.5c0.8,0.2,1.4,0.2,2,0.3c0,0-0.1,0.1-0.1,0.1c0.3,0,0.5,0,0.6,0
		c0.2,0,0.3,0.1,0.5,0.1c-0.3,0-0.4,0-0.4,0.2c0.5,0,1.2,0.2,1.3,0c0,0,0,0,0,0c0.6,0.2,2,0.5,1.9,0.6c0.7,0.1,1.6,0.4,1.6,0.2
		c0.4,0,1,0.5,1.4,0.3c0.5,0.2,0,0.1-0.2,0.2c0.5,0.2,1,0,1.1,0.3c0.6,0-0.1-0.1,0.1-0.2c0.1,0.3,1.1,0.3,1.6,0.5
		c0.3-0.1-0.2-0.1,0.2-0.2c-0.1,0.1,0.2,0.1,0.3,0.2c0-0.1,0.1-0.1,0.1-0.2c0.2,0.2,0.3,0.4,0.5,0.5c0.9,0-0.1-0.3,1-0.2
		c0,0,0,0-0.1,0c0.3,0.2,0.8,0,1.6,0.3c-0.3-0.1-0.1,0.1-0.2,0.1c0.2,0,0.3,0,0.5,0c0,0-0.1,0,0,0c0.4,0.2,0.3,0,0.8,0.2
		c-0.3,0-0.3,0.1-0.1,0.2c0.2,0,0.5,0,0.7-0.1c-0.1,0.1-0.2,0.1-0.3,0.2c0.6,0.2,1.6,0,1.9,0.4C182.1,44,182,44,181.8,44
		c0,0,0.2,0.2,0.6,0.2c0.1,0,0.2-0.1,0.1-0.1c0.1,0,0.2,0.1,0.2,0.1c-0.2,0.1-1,0-1.5-0.1C181.5,44.1,181.9,44.2,181.8,44z
		 M182.6,44.5c0.1,0,0.2,0,0.3,0C182.8,44.5,182.7,44.5,182.6,44.5z M182.3,44.4c0,0,0.1,0,0.1,0c0,0,0,0,0,0
		C182.4,44.5,182.4,44.5,182.3,44.4z M183.6,44.4c0.4,0,0.8,0.1,1.1,0.3c-0.2,0.1-0.4-0.1-0.5,0c0.1-0.1-0.1-0.2-0.4-0.2
		c-0.4,0.2-0.4,0.1-0.7,0.2c-0.1-0.2,0.2-0.3,0.5-0.3C183.6,44.3,183.5,44.3,183.6,44.4z M119.2,35.1
		C119.2,35.1,119.2,35.1,119.2,35.1c0.2,0,0.3,0,0.5,0.1C119.5,35.2,119.3,35.1,119.2,35.1z M122.4,35.4
		C122.4,35.4,122.4,35.4,122.4,35.4C122.4,35.4,122.4,35.4,122.4,35.4C122.4,35.4,122.4,35.4,122.4,35.4z M121.7,35.4
		c0.2,0,0.5,0.1,0.7,0.1C122.1,35.4,121.9,35.4,121.7,35.4z M134.9,36.6C134.9,36.6,134.9,36.6,134.9,36.6
		C134.8,36.6,134.7,36.6,134.9,36.6z M145.1,36.8c0,0-0.1,0-0.2,0C144.9,36.8,145,36.8,145.1,36.8z M167,41.2
		C167,41.2,167,41.1,167,41.2C167,41.1,167,41.2,167,41.2z M145.8,37.7c0.1,0,0.2,0,0.4,0C146.1,37.7,146,37.7,145.8,37.7z
		 M145.3,37.6c0.2,0,0.4,0,0.5,0.1C145.6,37.7,145.5,37.7,145.3,37.6z M134.7,35.4c0.1,0,0.1,0,0.2,0
		C134.9,35.5,134.8,35.4,134.7,35.4z M137.7,35.5C137.7,35.5,137.7,35.5,137.7,35.5C137.8,35.5,137.9,35.5,137.7,35.5z M142.4,36.3
		c0,0,0.1,0,0.1,0C142.5,36.3,142.4,36.3,142.4,36.3z M122.4,34.2C122.4,34.2,122.4,34.2,122.4,34.2c0.1,0,0.1,0,0.2,0
		C122.5,34.1,122.5,34.2,122.4,34.2z M118.5,33.8c0,0-0.1,0-0.1,0c0,0-0.1,0-0.1,0C118.4,33.8,118.4,33.8,118.5,33.8z M127,34.4
		c0,0-0.1-0.1-0.1-0.1C127,34.4,127,34.4,127,34.4z"/>
	<path id="Charcoal" class="st3" d="M0.2,69.9v-6.4h2.1c0,1.4,0.5,2.5,1.3,3.3c0.8,0.8,2,1.2,3.6,1.2c1.5,0,2.6-0.3,3.2-0.8
		c0.7-0.5,1-1.4,1-2.5c0-1.1-0.2-1.9-0.7-2.4c-0.5-0.5-1.4-0.8-2.7-1.1l-2.3-0.4c-2-0.4-3.3-1-4.1-1.8c-0.8-0.8-1.2-2.1-1.2-3.9
		c0-1.9,0.5-3.4,1.4-4.4c0.9-1,2.5-1.5,4.8-1.5c2.4,0,4.1,0.7,5.1,2.2v-1.8h2.1v5.5h-2.1c-0.2-2.4-1.7-3.6-4.5-3.6
		c-1.5,0-2.5,0.3-3.1,0.9c-0.6,0.6-0.8,1.5-0.8,2.7c0,1,0.2,1.8,0.6,2.2c0.4,0.4,1.3,0.8,2.7,1.1l2.3,0.4c2,0.4,3.4,1,4.2,1.8
		c0.8,0.8,1.2,2.1,1.2,3.9c0,1.9-0.5,3.4-1.5,4.4c-1,1-2.7,1.5-5,1.5c-2.5,0-4.4-0.8-5.5-2.4v2H0.2z M20,62.5V68h2.2v1.9h-6.8V68
		h1.7V51.5h-1.7v-1.9h1.7h6.2c1.3,0,2.4,0.2,3.3,0.5c0.9,0.3,1.5,0.8,1.9,1.5c0.4,0.7,0.7,1.3,0.8,2c0.1,0.7,0.2,1.5,0.2,2.5
		c0,0.9-0.1,1.8-0.2,2.4c-0.1,0.7-0.4,1.3-0.8,2c-0.4,0.7-1,1.1-1.9,1.5c-0.9,0.3-2,0.5-3.3,0.5H20z M23.1,60.2
		c0.8,0,1.4-0.1,1.9-0.3c0.5-0.2,0.9-0.5,1.1-0.9c0.2-0.4,0.4-0.8,0.5-1.3c0.1-0.4,0.1-1,0.1-1.7c0-1.4-0.2-2.5-0.7-3.2
		c-0.5-0.7-1.4-1-2.9-1H20v8.4H23.1z M35.6,69.8c-1-0.3-1.8-0.8-2.4-1.3c-0.6-0.5-1-1.3-1.3-2.2c-0.3-1-0.5-1.9-0.6-2.9
		c-0.1-1-0.1-2.2-0.1-3.7c0-1,0-1.9,0.1-2.7c0-0.7,0.1-1.5,0.3-2.3c0.1-0.8,0.3-1.4,0.5-2c0.2-0.5,0.5-1,0.9-1.5
		c0.4-0.5,0.9-0.9,1.4-1.2c0.6-0.3,1.3-0.5,2.1-0.7c0.8-0.2,1.7-0.3,2.7-0.3c1.4,0,2.6,0.2,3.6,0.5c1,0.3,1.8,0.8,2.4,1.3
		s1,1.3,1.4,2.2c0.3,0.9,0.5,1.9,0.6,2.9c0.1,1,0.1,2.2,0.1,3.7c0,1.2,0,2.2-0.1,3.1c-0.1,0.9-0.2,1.7-0.4,2.6
		c-0.2,0.9-0.5,1.6-0.8,2.1c-0.4,0.6-0.8,1.1-1.4,1.5c-0.6,0.4-1.3,0.8-2.2,1c-0.9,0.2-1.9,0.3-3.1,0.3
		C37.8,70.3,36.6,70.1,35.6,69.8z M41.6,67.6c0.7-0.3,1.2-0.6,1.5-1c0.4-0.4,0.7-1,0.9-1.7c0.2-0.7,0.3-1.5,0.4-2.2
		c0.1-0.8,0.1-1.7,0.1-2.8c0-1.1,0-2.1-0.1-2.8c-0.1-0.8-0.2-1.5-0.4-2.2c-0.2-0.7-0.5-1.3-0.9-1.7c-0.4-0.4-0.9-0.8-1.5-1
		c-0.7-0.3-1.4-0.4-2.3-0.4c-0.9,0-1.7,0.1-2.4,0.4c-0.6,0.3-1.1,0.6-1.5,1c-0.4,0.4-0.7,1-0.9,1.7c-0.2,0.7-0.3,1.5-0.4,2.2
		c-0.1,0.7-0.1,1.7-0.1,2.8c0,1.2,0,2.1,0.1,2.8c0.1,0.7,0.2,1.5,0.4,2.2c0.2,0.7,0.5,1.3,0.9,1.7c0.4,0.4,0.9,0.8,1.5,1
		c0.6,0.3,1.4,0.4,2.4,0.4C40.2,68,40.9,67.8,41.6,67.6z M96.3,49.6h6.2v1.9h-1.7v18.4h-3.1l-9.3-15.5V68h1.7v1.9h-6.2V68h1.7V51.5
		h-1.7v-1.9h4.8L98,65.1V51.5h-1.7V49.6z M104.3,68h1.7V51.5h-1.7v-1.9H118v4.8h-2.1v-2.6h-7.1v6.6h7.4v2.3h-7.4v6.9h7.7V65h2.1v4.9
		h-14.3V68z M140.5,54.5v-2.7h-4V68h2.3v1.9h-7.4V68h2.3V51.8h-4v2.7h-2.1v-5h15.1v5H140.5z M143.7,49.6h1.7h6.4
		c1.1,0,2,0.1,2.8,0.3c0.8,0.2,1.4,0.5,1.9,0.9c0.4,0.3,0.8,0.8,1,1.4c0.3,0.6,0.4,1.1,0.5,1.6c0.1,0.5,0.1,1.1,0.1,1.9
		c0,0.7,0,1.3-0.1,1.8c-0.1,0.5-0.2,1-0.4,1.6c-0.2,0.5-0.6,1-1,1.4c-0.5,0.4-1,0.7-1.8,0.9c0.4,0.4,0.8,0.9,1.1,1.7l2.2,5h1.8v1.9
		h-4l-2.8-6.6c-0.3-0.6-0.6-1.1-1-1.3c-0.4-0.2-0.9-0.4-1.7-0.4h-2.1V68h1.6v1.9h-6.1V68h1.7V51.5h-1.7V49.6z M151.7,59.4
		c0.7,0,1.4-0.1,1.9-0.3c0.5-0.2,0.8-0.5,1.1-0.8c0.2-0.4,0.4-0.8,0.4-1.2c0.1-0.4,0.1-0.9,0.1-1.5c0-1.2-0.2-2.2-0.7-2.8
		c-0.4-0.6-1.4-1-2.8-1h-3.5v7.6H151.7z M161.3,49.6h6.5v1.9H166V68h1.8v1.9h-6.5V68h1.8V51.5h-1.8V49.6z M169.7,69.9V68h1.7V51.5
		h-1.7v-1.9h7.5c1.3,0,2.4,0.1,3.3,0.4c0.9,0.3,1.5,0.7,1.9,1.2c0.4,0.5,0.7,1.1,0.8,1.6c0.1,0.5,0.2,1.2,0.2,2
		c0,1.1-0.2,2.1-0.5,2.9c-0.4,0.8-1.1,1.4-2.1,1.7c0.8,0.2,1.4,0.4,1.9,0.8c0.5,0.3,0.9,0.7,1.1,1.2c0.3,0.5,0.4,1,0.5,1.4
		c0.1,0.5,0.1,1,0.1,1.7c0,0.8-0.1,1.5-0.2,2.1c-0.1,0.6-0.4,1.1-0.8,1.7c-0.4,0.6-1.1,1-1.9,1.3c-0.9,0.3-2,0.4-3.3,0.4H169.7z
		 M177.2,58.4c1.4,0,2.3-0.3,2.8-0.8c0.5-0.5,0.7-1.4,0.7-2.5c0-1.1-0.2-1.9-0.7-2.5c-0.5-0.5-1.4-0.8-2.8-0.8h-2.9v6.5H177.2z
		 M178.1,67.7c1.4,0,2.3-0.3,2.8-0.9c0.5-0.6,0.7-1.4,0.7-2.6c0-1.2-0.2-2.1-0.7-2.7c-0.5-0.6-1.4-0.9-2.8-0.9h-3.9v7H178.1z
		 M185.9,68h1.7V51.5h-1.7v-1.9h13.7v4.8h-2.1v-2.6h-7.1v6.6h7.4v2.3h-7.4v6.9h7.7V65h2.1v4.9h-14.3V68z M81.3,68l-6-18.4h-3.8
		l-6,18.4h-1.1h-0.2h-1.4l-5.5-8.4l5.2-8.2h1.5v-1.9h-6v1.9h1.5l-4.3,7h-2.2v-7h1.4v-1.9h-6v1.9H50V68h-1.7v1.9h6.1V68h-1.6v-7.3h2
		l4.8,7.3h-1.4v1.9h5.9h0.2h5.6V68h-1.7l5.1-15.9L78.5,68h-1.7v1.9h5.8V68H81.3z M32.4,41.1c0.1,0,0.3,0,0.4,0
		C32.7,41.1,32.6,41.1,32.4,41.1z M56.3,37.3c0.2,0,0.3,0,0.5-0.1C56.6,37.2,56.4,37.2,56.3,37.3z M55.9,37.4c0.1,0,0.2-0.1,0.3-0.1
		C56.1,37.3,55.9,37.3,55.9,37.4z M184.3,36.3C184.3,36.3,184.3,36.3,184.3,36.3c-0.1,0-0.1,0.1-0.1,0.1
		C184.2,36.4,184.3,36.3,184.3,36.3z M20.6,43.3C20.6,43.3,20.6,43.3,20.6,43.3c0,0,0.1,0,0.1,0C20.7,43.3,20.7,43.3,20.6,43.3z
		 M20.3,43.5c0.1,0,0.2-0.1,0.2-0.1C20.4,43.4,20.3,43.4,20.3,43.5z M23.8,42.7C23.7,42.7,23.7,42.7,23.8,42.7
		C23.7,42.7,23.7,42.7,23.8,42.7z M20.5,43.4c0.1,0,0.1,0,0.1,0C20.6,43.4,20.5,43.4,20.5,43.4z M23.8,42.6
		C23.8,42.7,23.8,42.7,23.8,42.6c0.1-0.1,0.7,0,0.9-0.1C24.4,42.6,24.1,42.5,23.8,42.6z M50.8,38c0.2,0,0.3-0.1,0.5-0.1
		c-0.1,0-0.2,0-0.3,0C50.9,37.9,50.8,38,50.8,38z M22.8,43c0,0,0-0.1,0.1-0.1C22.8,42.9,22.8,42.9,22.8,43C22.7,43,22.7,43,22.8,43z
		 M18.2,44.1c0-0.1,0.1-0.1,0.1-0.2c-0.1,0-0.2,0.1-0.4,0.1C17.9,44.1,18,44.2,18.2,44.1z M48.1,39.2c0,0,0,0.1,0,0.1
		C48.4,39.2,48,39.3,48.1,39.2z M53.2,38.7c0.2,0,0.3-0.1,0.5-0.1c-0.1,0-0.3,0.1-0.4,0.1C53.3,38.7,53.2,38.7,53.2,38.7z
		 M30.9,42.1c-0.4,0.1,0,0.1,0,0.1C31.2,42.1,31.3,42.1,30.9,42.1z M20,43.5c-0.2,0.2-0.3,0.2-0.6,0.4c-0.2,0.1-0.4,0-0.4,0
		c-0.1,0.1-0.4,0-0.5,0.2c0.3,0.1,0.7,0,1.1-0.2c0.1,0,0,0.1,0,0.1C19.9,43.9,20.2,43.6,20,43.5z M31.8,41.8c0,0.1-0.1,0.1-0.2,0.2
		c0,0,0,0.1,0.1,0.1C31.8,42,31.8,41.9,31.8,41.8z M22.7,42.9c-0.1,0-0.1,0.1-0.2,0.1C22.6,43,22.7,42.9,22.7,42.9
		C22.7,42.9,22.7,42.9,22.7,42.9z M22.9,42.9c0.1,0,0.1,0,0.2,0C23,42.9,22.9,42.9,22.9,42.9z M36.5,41.1c0,0-0.1,0-0.1,0
		c0,0-0.1,0.1-0.1,0.1C36.4,41.2,36.5,41.2,36.5,41.1z M59.8,37.7c-0.1,0-0.1,0-0.1,0C59.7,37.7,59.8,37.7,59.8,37.7z M28.6,42.5
		c-0.3,0-0.5,0.1-0.8,0.1c0.1,0,0.3,0.1,0,0.2C28.8,42.7,27.6,42.7,28.6,42.5z M57.3,37.8c-0.1,0-0.2,0-0.2,0.1
		C57.3,37.9,57.4,37.8,57.3,37.8z M42.9,39.9c0.1,0,0.3,0,0.4,0C43.3,39.8,43.1,39.9,42.9,39.9z M42.7,39.9
		C42.7,39.9,42.7,39.9,42.7,39.9C42.7,39.9,42.7,39.9,42.7,39.9C42.7,39.9,42.7,39.9,42.7,39.9z M66.7,35.6
		C66.8,35.6,66.8,35.6,66.7,35.6C67,35.6,66.9,35.6,66.7,35.6z M78.8,34.2C78.8,34.2,78.8,34.2,78.8,34.2
		C78.9,34.2,78.9,34.2,78.8,34.2C78.9,34.2,78.9,34.2,78.8,34.2z M78.9,34.2c0.2,0,0.4,0,0.7,0C79.4,34.1,79.1,34.2,78.9,34.2z
		 M81.6,33.9c0.1,0,0.3,0.1,0.4,0.1c0,0,0.1,0,0.1,0C81.9,34,81.7,34,81.6,33.9z M134.9,32.3c0.1,0,0.1,0,0.2,0
		C135,32.2,134.9,32.3,134.9,32.3z M136.3,32.2C136.3,32.2,136.3,32.2,136.3,32.2c0,0,0.1,0,0.1,0C136.4,32.2,136.3,32.2,136.3,32.2
		z M133.1,33.6c-0.1,0-0.2,0-0.2,0c-0.1,0-0.2,0-0.3,0.1C132.8,33.7,133,33.6,133.1,33.6z M165.8,33.9c-0.1-0.1,0.6-0.1-0.2-0.2
		C165.7,33.8,165.7,33.8,165.8,33.9z M156.8,34.3C156.9,34.3,156.9,34.3,156.8,34.3C156.9,34.3,156.8,34.3,156.8,34.3
		c-0.1,0-0.1,0-0.1,0C156.8,34.3,156.8,34.3,156.8,34.3z M83.1,35.1C83.1,35.1,83,35.1,83.1,35.1c-0.1,0-0.2,0-0.2,0
		C82.9,35.1,83,35.1,83.1,35.1z M79.1,35.4C79.1,35.4,79.1,35.4,79.1,35.4c-0.1,0-0.1,0-0.2,0C79,35.5,79,35.5,79.1,35.4z
		 M94.9,34.2c0.1,0.1,0.5,0.1,0.7,0C95.4,34.2,95.1,34.2,94.9,34.2z M82.3,35.3c0-0.1-0.1-0.1-0.1-0.2C82,35.2,82,35.4,82.3,35.3z
		 M74.8,36.1c0,0-0.1,0-0.1-0.1C74.7,36,74.7,36,74.8,36.1z M67,36.7c0.1,0,0.1,0,0.2,0C67.1,36.7,67.1,36.7,67,36.7z M106.2,33.9
		c-0.5-0.1,0.8-0.2,0-0.3C106.3,33.6,105.6,33.8,106.2,33.9z M106.2,33.5C106.2,33.5,106.2,33.5,106.2,33.5
		C106.2,33.5,106.2,33.5,106.2,33.5C106.2,33.5,106.2,33.5,106.2,33.5C106.2,33.5,106.2,33.5,106.2,33.5
		C106.2,33.5,106.2,33.5,106.2,33.5z M184.3,36.5c0.2,0.1-0.7,0.2-1.1,0.2c-1.2-0.2-0.2-0.3-1-0.5c-0.4,0-0.7,0-1.1,0
		c0,0,0-0.1,0-0.1c-0.2-0.1-0.3,0-0.3,0c0.1-0.1-0.8-0.1-1.3-0.2c0,0,0.1,0.1,0.1,0.1c-1.2,0.2-1.8-0.5-2.8-0.4
		c-0.2,0-0.5,0.1-0.7,0.1c0-0.1-0.1-0.1-0.1-0.2c-0.4,0.1-0.5,0.2-1.1,0.1c-2.2-0.5-4.6-0.4-6.9-0.8c0,0,0.1,0.1,0.2,0.1
		c-1.9-0.6-3.1,0.2-4.9-0.3c0,0,0.1,0,0.1-0.1c-0.9,0,0.1-0.1-0.5-0.2c-0.1,0.2-1.2,0.1-1.7,0.1c0.1,0,0.3,0,0.4,0
		c-0.1-0.1-0.1-0.2-0.4-0.2c-0.6,0.3-1.9,0.1-2.8,0.2c-0.1-0.1-0.9-0.3-1.3-0.6c-0.1,0-0.3,0.1-0.4,0.2c-0.3-0.1-0.6-0.1-0.8,0
		c0.3,0,0.6,0,0.8,0c0,0,0,0,0,0c0,0,0.1,0,0.1,0c0.2,0,0.3,0,0.3,0c0.4,0.2,0,0.1,0,0.3c-0.3,0-0.9,0-1-0.1c-0.2,0-0.3,0-0.5-0.1
		c-0.1,0-0.2,0-0.4,0c0,0,0,0,0.1,0c0,0,0,0-0.1-0.1c-0.6-0.1-1.4,0.1-1.9,0.2c0.5-0.2-0.1-0.2-0.1-0.4c0,0,0.6,0.1,1.3,0.1
		c-0.1,0-0.1,0-0.1-0.1c-0.6-0.2-1.1,0.1-2.1-0.1c0.1,0,0.2,0,0.1-0.1c-0.3-0.1-0.6,0-0.7,0.1c-0.1-0.2-0.8-0.3-1.1-0.2
		c-0.3,0.1-0.3,0.2-0.8,0.1c0.1,0,0.2-0.1,0.3-0.1c-0.7-0.1-0.6,0.1-1.1,0c0.2,0.1,0.2-0.1,0.1-0.1c-0.7,0-0.7,0.1-1.2,0.3
		c0-0.1,0.1-0.1,0.1-0.2c-0.6,0.1-1.7,0.2-1.7,0c0.2,0.3-1.3,0.1-1.8,0.1c0.2,0,0.2-0.1,0.2-0.1c-1.1,0.2-2.2-0.1-3.3-0.1
		c-0.1-0.1-0.1-0.2-0.2-0.3c-0.6,0-0.8,0.5-1.4,0.4c0.1,0,0.2-0.1,0.2-0.1c-1.1,0-1.6,0-2.5-0.1c0-0.1,0-0.1,0-0.2
		c-0.3,0.1-0.7,0.1-1,0.1c-0.7-0.4-2.9,0.2-4.2-0.3c0,0.1-0.1,0.2-0.1,0.3c-0.5,0-1.2,0-1.4-0.2c0,0,0.1,0,0.1,0
		c0.1-0.2-0.5,0-0.8-0.1c-0.2,0-0.5,0.2-0.3,0.2c-1.4-0.2-3.4,0-4.2-0.3c-1.4,0.1-2.4,0.3-3.9,0.3c0,0,0,0,0,0
		c-0.5,0-1.5-0.1-1.5-0.4c-1.1,0.1-1.7,0.4-3,0.3c0.1,0,0.2-0.1,0.3-0.1c-0.3,0-0.8,0.1-1,0.1c-0.1,0,0-0.1,0-0.1
		c-0.3-0.1-0.5,0.1-0.7,0.1c0,0,0.1-0.1,0.1-0.1c-0.2,0-0.5,0-0.8,0c-0.9,0-2.1,0.3-3.1,0.2c0.2,0,0.1-0.1,0-0.2
		c-0.5,0.3-2,0.3-2.5,0.4c0.1,0,0.2-0.1,0.3-0.1c-1,0.2-0.9-0.3-2,0c0.2,0,0.4,0.1,0.6,0.1c-0.4,0-0.8,0-0.7,0.2
		c-0.5-0.1-0.1-0.2-0.8-0.2c0-0.1,0.5-0.1,0.3-0.2c-0.3-0.1-0.7-0.1-1-0.2v0c0,0,0,0,0,0c0,0-0.2,0-0.5,0c0.1,0.3-0.9,0.1-0.3,0.4
		c-1,0.1-1.9,0-2.7,0c-0.4,0-0.8,0-1.3,0.1c-0.5-0.3-2.5,0.1-2.4-0.3c0,0,0,0,0,0c0,0,0,0,0,0c-0.1,0-0.2,0-0.2,0c0,0-0.1,0-0.1,0
		c-0.1,0-0.2,0-0.2,0c-0.1,0-0.1,0-0.2,0c-0.3,0.1-0.6,0.1-0.9,0.3c0.1,0,0.3,0,0.5-0.1c-0.2,0.1-1,0.2-1.4,0.2
		c0.5-0.1,1.2-0.3,1.6-0.4c0,0,0,0,0,0c0,0,0,0,0,0c-0.6,0.1-1.5,0.3-1.9,0.4C96,34.1,96,34,95.9,33.9c-0.5,0.2-0.5-0.2-1,0.1
		c0,0,0.1,0,0.1,0.1c-1,0-1,0.3-1.9,0.4c0,0,0-0.1,0-0.1c-0.3,0-0.8,0.2-1.1,0c0.2,0,0.4,0,0.6,0c-0.1-0.2-0.5-0.2-0.8-0.3
		c-0.6,0.1-0.2,0.3-0.5,0.3c-0.1-0.1,0-0.1,0.2-0.2c-0.7,0.1-1.7,0.2-2.2,0.5c0,0,0-0.1,0-0.1c-0.7,0-1.4,0.3-1.8,0.2
		c0,0,0.1,0,0.1,0c-0.6-0.2-1.5,0.3-1.7,0c-0.3,0,0.6,0,0.2-0.2c-0.9,0-0.6,0.4-1.3,0.3c0.1,0,0.1,0,0.1-0.1
		c-0.6,0.1-1.3,0.2-1.9,0.2c-0.8-0.2-2.3,0.3-3.2,0c0.3,0.1-0.1,0.2-0.2,0.2c0,0,0,0,0,0c-0.3,0-0.3,0.1-0.5,0.2
		c-0.3-0.1-0.9,0.2-1,0.1c0,0.1-0.3,0.1-0.5,0.1c0.6-0.1,0.2-0.2,0.4-0.3c-0.9,0-0.9,0.4-1.8,0.5c-0.2,0-0.3-0.1-0.5-0.1
		c-0.1,0.2-0.9,0.2-0.9,0.3c-0.2-0.1-0.4-0.1-0.4-0.2c-0.3,0.1-0.9,0-1,0.2c0.1,0,0.2,0,0.4,0c-1.1,0-1.7,0.4-2.6,0.4
		c0-0.1,0-0.2,0-0.3c-0.6-0.1-1,0.3-1.5,0.1c0.2,0.1,0.2,0.1-0.1,0.2c0.2,0,0.6-0.1,1-0.2c-0.2,0.1-0.5,0.2-0.7,0.3
		c0.4-0.1,0.8-0.1,1.2-0.2c-0.5,0.2-0.5,0.1-0.2,0.3c-0.7,0.2-0.8-0.1-1.5,0.1c-0.3,0,0-0.2-0.3-0.2c-0.6,0.2-1.2-0.1-1.6,0.1
		c-0.1,0,0.2,0,0.2-0.1c-0.4,0.1-0.7,0.1-0.8,0.2c0.1,0,0.2,0,0.3,0c-0.3,0-0.3,0.2-0.9,0.2c-0.3,0.1-0.5,0.3-0.1,0.3
		c-0.1,0-0.5,0-0.4-0.1c-0.9,0.1-0.4,0.4-1.2,0.3c0.1,0,0.1,0,0.1-0.1c-0.2,0-0.4,0-0.5,0.1c0.7-0.1-0.3-0.2,0.6-0.3
		c-0.1-0.2-0.7,0-1,0c-0.4,0.2,0,0.3-0.2,0.4c0-0.1-0.2,0-0.4,0c0.1,0,0.1,0.1,0.2,0.1c-0.2,0-0.4,0-0.6,0.1c0.1,0,0.2-0.1,0.4-0.1
		c-0.4,0-1-0.1-1.7,0.1c0.2-0.1,0.5-0.2,0.1-0.2c-0.7,0.2-0.2,0-0.6-0.1c-0.7,0.1-0.1,0.3-1.2,0.3c-0.1,0,0,0.1,0.1,0.1
		c-0.8,0-1.1,0.2-1.9,0.2c0.3,0,0.6,0,0.2,0.1c0.2-0.1-0.6,0-0.9-0.1c0,0,0,0.1-0.1,0.1c-0.2,0,0-0.1,0.2-0.2c0,0,0.1,0,0.2,0
		c0.3-0.1,0.2-0.3-0.4-0.3c-0.6,0.1-0.5,0.3-0.4,0.4c-0.8,0-0.7,0.4-1.5,0.4c-0.2,0-0.8-0.2-1.4-0.1c-0.3,0.2,0.7,0,0.4,0.2
		c-1-0.2-1.9,0.5-3.1,0.5c0-0.1,0.1-0.1,0.1-0.2c-0.3,0-0.6,0.1-0.9,0.1c0.1,0,0.3,0,0.4,0c-0.3,0.1-1,0.1-0.8,0
		c-0.6,0.2-0.8,0.2-1.4,0.2c0.6-0.1,0,0,0.5-0.1c-0.7,0-0.7,0.1-1.2,0.2c0.1-0.1-0.2-0.1-0.4-0.1c-0.4,0.2-1.1,0.3-1.7,0.4
		c0,0,0,0,0-0.1c-1,0.2-2.1,0.2-3.1,0.5c0,0,0,0,0,0c0,0,0.1,0,0.1,0c0.4,0.1-0.8,0.3-1.1,0.4c-0.1,0-0.1-0.1-0.3-0.1
		c0,0.2-0.4,0.2-0.5,0.3c-0.4,0,0-0.2-0.6-0.1C40,40.4,40,40.5,40,40.6c-0.1-0.1-0.5-0.1-0.9,0c0.1-0.1,0.3,0,0.4-0.1
		c0-0.1-0.2,0-0.2-0.1c-0.3,0-0.1,0.2-0.4,0.2c0.1-0.1,0.2-0.1,0.3-0.2c-0.1,0-0.3,0.1-0.4,0.1c0.2-0.1,0.2-0.2,0.1-0.3
		c-0.8,0.2-0.1,0.4-0.1,0.5c-0.8,0-1.4,0.3-2,0.4c0-0.1,0.1-0.1,0.1-0.2c-0.3,0.1-0.4,0.1-0.5,0.2c-0.1,0-0.3,0.1-0.4,0.1
		c0.2-0.1,0.3-0.2,0.3-0.3c-0.5,0.1-1.1,0.2-1.2,0.4c0,0,0,0,0,0c-0.6,0-2,0.2-1.9,0.2c-0.7,0.2-1.6,0.2-1.5,0.4
		c-0.4,0.1-1.1-0.1-1.3,0.2c-0.5,0,0,0,0.1-0.2c-0.5,0-0.9,0.4-1.1,0.1c-0.5,0.2,0.1,0,0,0.2c-0.2-0.2-1,0.2-1.6,0.1
		c-0.2,0.2,0.3,0-0.1,0.2c0-0.1-0.2,0-0.3,0c0,0.1,0,0.1-0.1,0.2c-0.2-0.1-0.4-0.2-0.6-0.3c-0.8,0.4,0.2,0.3-0.8,0.5c0,0,0,0,0.1,0
		c-0.3-0.1-0.7,0.3-1.5,0.3c0.3,0,0.1-0.1,0.2-0.2c-0.1,0.1-0.3,0.1-0.4,0.2c0,0,0.1,0,0,0c-0.4,0-0.3,0.1-0.8,0.1
		c0.3-0.1,0.2-0.2,0-0.2c-0.2,0.1-0.4,0.2-0.6,0.3c0.1-0.1,0.1-0.2,0.2-0.3c-0.6,0.1-1.4,0.7-1.8,0.4c0.1,0,0.2-0.1,0.3-0.1
		c0,0-0.2-0.2-0.6,0c-0.1,0-0.1,0.1-0.1,0.2c-0.1,0-0.2,0-0.2,0c0.1-0.2,0.9-0.4,1.3-0.5c-0.1,0.1-0.5,0.2-0.4,0.3
		c0.4-0.1,0.8-0.3,1.2-0.5c-0.2,0.1-0.2,0.2-0.3,0.3c0.5,0,0.3-0.2,0.7-0.3c0.1,0,0.2,0.1,0.2,0.1c0.4-0.1,0.8-0.2,1.2-0.3
		c0,0-0.5,0.2-0.2,0.2c0.8-0.3,1-0.5,1.8-0.8c1-0.5,2.1-0.3,2.8-0.6c0-0.1-0.6,0-0.1-0.1c-0.1,0.2,0.3,0,0.3,0.1
		c0.5-0.3,0.8-0.1,1.1-0.3c-0.1,0.1,0.2,0.1,0.4,0.1c0,0.2,0.6,0-0.1,0.3c0.7-0.4,1.4-0.2,1.9-0.7c-0.1,0-0.1,0-0.2,0
		c0.3,0,0.5,0,0.8-0.1c0,0,0,0,0,0c0.3,0,0.4-0.1,0.9,0c-0.2,0.1-0.5,0.1-0.7,0.2c0.4,0.1,0.8-0.3,1.3-0.4c0,0.1-0.5,0.1-0.3,0.3
		c0.3,0,0.6-0.2,0.9-0.3c0,0,0,0,0,0.1c0.8,0,0.3-0.4,0.9-0.3c0,0,0-0.1,0-0.1c0.2,0,0.8,0.1,0.3,0.2c0.3-0.1,0.6-0.2,0.7-0.3
		c-0.3-0.1-0.3,0-0.4-0.1c0.4-0.1,0.7-0.2,1.1-0.3c0.1,0-0.1,0.1-0.2,0.1c1.4,0.1,2.6-0.8,4.2-0.6c-0.2-0.1,0.1-0.1,0.2-0.2
		c0.5,0,1.2-0.2,1.7-0.2c0,0-0.1,0.1-0.1,0.1c1.1-0.3,1.9-0.5,2.7-0.6c0,0,0,0.1-0.1,0.2c0.5-0.2,1.3,0.1,1.4-0.2
		c-0.1,0-0.1,0-0.2,0c1.1-0.1,2.3-0.5,3.5-0.7c0.3,0.1-0.7,0.1-0.4,0.3c0.8-0.1,1.6-0.3,2.5-0.4c-0.1,0-0.1,0.1-0.2,0.1
		c0.9,0-0.1-0.2,0.6-0.2c0,0.1,0,0.1,0.3,0.1c0.1-0.1,0.1-0.1,0.2-0.2c0,0,0,0.1-0.1,0.2c0.3-0.2,1.3-0.2,1.5-0.5
		c0.1,0-0.1,0.2,0,0.3c0.4,0,0.7-0.1,0.9-0.2c0,0,0,0,0,0c0.3,0.1,1,0,0.8,0c0.7,0,0.1-0.1,0.6-0.3c-0.2,0-0.4,0-0.6,0
		c0.3-0.1,0.7-0.1,1-0.2c-0.1,0-0.3,0.1-0.4,0.1c0.5,0,0.9-0.2,1.4-0.3c-0.1,0-0.2,0-0.3-0.1c0.2,0,0.4-0.1,0.6-0.1
		c0.1,0.2,0.8-0.1,0.5,0.2c1.1,0,1.8-0.4,2.8-0.5c-0.1,0,0,0.1-0.1,0.1c0.6,0,1-0.2,1.3-0.3c-0.1,0.1-0.2,0.1-0.2,0.2
		c0.7-0.1,0.4-0.2,1.2-0.3C64.5,36,64.5,36,64.8,36c0-0.1,0.1-0.1,0.3-0.2c-0.5,0.5,0.9,0.1,0.6,0.4c0-0.1,1.2-0.4,0.9-0.5
		c-0.1,0-0.1,0-0.2,0.1c0-0.1,0.3-0.1,0.5-0.1c-0.1,0-0.2,0.1-0.2,0.1c1.1-0.3,2.3-0.3,3.5-0.5c-0.1,0.1-0.6,0.2-0.3,0.2
		c1.2-0.1,1.9-0.4,3.2-0.6c0.1,0.3-1.3,0.2-1.4,0.4c1.3-0.2,2.7-0.4,4.1-0.7c0.6,0.3,1.4-0.3,2.4-0.1c-0.1-0.1,0.3-0.2,0.8-0.3
		c-0.2,0.1,0.4,0.1,0.2,0.2c0.4-0.2,1.7-0.3,1.6-0.1c0.1-0.3,0.9-0.1,1.3-0.3c0.6,0,1.2-0.2,1.9-0.1c-0.2-0.1,0.5-0.1,0.8-0.2
		c-0.1,0-0.1,0-0.1,0c0.2,0.1,0.8-0.2,1.2-0.1c0.2,0,0,0.1,0.3,0.1c0-0.1,1-0.3,1.4-0.2c-0.2,0-0.2,0.1-0.3,0.1
		c0.5-0.1,1.1-0.2,1.6-0.2c0.5,0,1-0.1,1.5-0.1c0.2,0,0.5,0,0.7-0.1c0.6,0,1.2-0.1,1.7-0.2c-0.1,0.1-0.2,0.1-0.3,0.2
		c1.2,0.2,0.7-0.4,1.7-0.4c2.4-0.1,4.9,0,7.3-0.1c0.1,0,0.3,0,0.4,0c0.2-0.1-0.1-0.1-0.1-0.1c0.2,0,0.3,0.2,0.6,0.1
		c0,0,0-0.1-0.1-0.1c0.5,0.1,1.1,0.1,1.8,0c0.2,0,0.5,0,0.7-0.1c0.7,0,1.3,0,1.6,0.1c1.1-0.2,1.8,0,3.2-0.2c0.4,0.1-0.5,0.2,0.1,0.2
		c0.4-0.1,0.8-0.1,1.2-0.2c0,0,0,0-0.1,0c1.2-0.3,3.1,0.3,4.6,0c0,0,0,0-0.1,0c0,0.1,0.3,0.2,0.5,0.1c0.1-0.1-0.1-0.1-0.2-0.1
		c1.3-0.1,1.6-0.2,2.6-0.2c-0.4,0.1,0.4,0.1,0.5,0.2c0.3-0.1-0.2-0.2,0.4-0.2c0.9,0,1.7,0.1,2.4,0.1c0.3-0.1,0.7-0.1,0.7-0.3
		c1,0,1.5-0.1,2.7-0.1c0,0,0,0,0,0.1c0.3-0.2,1,0.1,1.3,0c0,0.1-0.2,0.1-0.1,0.2c0.2,0,0.4,0,0.5-0.1c-0.3,0.1-0.4,0.3,0,0.3
		c0.5-0.1-0.1-0.1,0.1-0.2c0,0.1,0.1,0.1,0.1,0.2c0.4,0,0.5-0.2,0-0.3c1.2,0,2.4-0.1,3.5,0c0,0-0.1,0.1-0.1,0.1c0.6,0,1.4,0,1.8,0.1
		c0,0,0.2-0.1,0.1-0.1c0.7-0.1,0.2,0.2,0.7,0.1c-0.2,0-0.3,0.1-0.3,0.1c0.5,0,1-0.1,1.5-0.1c0,0.1,0.9,0.3,1.5,0.2
		c0-0.1-0.1-0.1-0.3-0.1c0.1,0,0.3,0,0.4,0c0.1,0.1,0.2,0.1,0.3,0.2c0.2-0.1,0.4-0.1,0.6-0.2c0,0.1,0,0.1,0,0.2
		c0.4,0,0.6-0.3,0.9-0.2c1.3,0.1,1,0.2,1.9,0.4c0.1-0.3,1.4,0.1,1.7-0.2c1.2,0.3,2.9,0.2,4.5,0.3c0,0-0.1,0-0.1,0
		c0.7,0.2,0.8-0.2,1.5-0.1c-0.1,0-0.1,0-0.2,0c0.9,0.2,2.6,0.1,3.5,0c-0.2,0-0.1,0.2,0.2,0.2c0.2-0.1-0.2-0.3,0.3-0.2
		c-0.1,0,0,0.1,0.1,0.1c0.2,0,0.3-0.1,0.5-0.1c1.2,0.2,2.5,0.3,3.8,0.4c0.1,0,0.2,0,0.4,0c0.2,0.1,0.1,0.1,0,0.2c0.1,0,0.2,0,0.3,0
		c1,0,1.9-0.1,2.8,0c0,0.1,0.1,0.1,0.1,0.2c0.5,0,0.3-0.3,0.9-0.1c0.1,0-0.4,0-0.6,0.1c0.9,0.2,0.6-0.2,1.5-0.1
		c-0.1,0.1-0.2,0.1-0.2,0.2c0.7,0.2,0.8-0.1,1.1-0.2c1-0.2,0.7,0.5,2,0.4c0.2-0.1-0.1-0.2,0.2-0.3c0.9,0.1,1,0,2,0.1
		c0.5,0.4-0.5,0,0,0.3c-0.2,0-0.5-0.1-0.7-0.1c0.6,0.2-0.6,0-0.5,0.2c0.5,0.1,1.2,0,1.8,0c0,0.2-0.7,0-0.4,0.2c0.1,0,0.2,0,0.3,0
		c-0.1,0-0.1,0.1-0.3,0.1c0.1,0.1,0.4,0,0.6,0.1c0-0.1,0-0.2-0.1-0.3c0,0,0,0,0.1,0.1c0.6-0.2,1.6,0.1,2.1-0.1c-0.1,0,0,0.1,0,0.1
		c0.4,0,0.7-0.1,1.2-0.1c0.3,0.1-0.2,0.3,0.6,0.3c0.1-0.1-0.2-0.4,0.5-0.3c0,0-0.6,0.1-0.3,0.2c0.6,0,0.2,0.1,0.8,0.3
		c0.3-0.1,0.6,0.1,0.7-0.2c0.2,0.2,0.1,0.1,0.5,0.3c-0.2-0.2,0.8-0.1,0.8-0.3c0.1,0.2-0.7,0.2-0.2,0.5c0.4-0.1,1-0.1,1.1-0.3
		c0.3,0.1,0.4,0.2,0.8,0.2c-0.1,0-0.2,0-0.2,0c0.8-0.1,1.9,0.2,2.3-0.1c-0.2,0.3,1.6,0.2,1,0.5c0.3,0,0.8-0.1,0.9-0.1
		c-0.1,0.3,0.8,0.1,1.1,0.3c0.2-0.1,0.8,0,1.1-0.1c-0.2,0-0.2,0-0.2,0.1c0.4-0.1,0.3,0,0.6,0.2c0.5,0-0.1-0.2,0.3-0.3
		c0.4,0.1,0.1,0.2,0.1,0.3c0.2-0.1,0.5-0.1,0.7-0.2c0.1,0,0.2,0.1,0.3,0.2c0.2,0,0.5-0.1,0.8,0c-0.2,0-0.4,0-0.6-0.1
		c0.1,0.1,0.1,0.1,0.2,0.2c0.2,0,0.5-0.1,0.7-0.1c1,0.3,0.6,0.5,0.5,0.8c-0.1,0-0.3,0-0.4,0C183.8,36.4,184.1,36.5,184.3,36.5z
		 M154.4,33.2c-0.2,0-0.4,0-0.6,0c0.2,0.1,0.5,0.1,0.4,0.1C154.4,33.4,154.4,33.3,154.4,33.2z M155.4,33.3
		C155.4,33.3,155.4,33.3,155.4,33.3c-0.1,0-0.2,0-0.3,0c0,0,0,0,0,0c0,0,0,0,0,0c0,0,0,0,0.1,0C155.2,33.3,155.3,33.3,155.4,33.3
		C155.4,33.3,155.4,33.3,155.4,33.3z M156.2,34.4c0,0,0.1,0.1,0.3,0.1c0,0,0.1,0,0.1-0.1c0,0,0,0,0,0
		C156.4,34.4,156.3,34.4,156.2,34.4z"/>
</g>
</svg>
