<svg id="Layer_1" data-name="Layer 1" xmlns="http://www.w3.org/2000/svg" xmlns:xlink="http://www.w3.org/1999/xlink" viewBox="0 0 235.94 176.63"><defs><style>.cls-1{fill:#00a99d;}.cls-2{fill:url(#radial-gradient);}</style><radialGradient id="radial-gradient" cx="61.44" cy="-306.33" r="57.49" gradientTransform="translate(272.94 340.87) rotate(-40.04)" gradientUnits="userSpaceOnUse"><stop offset="0" stop-color="#fff23a"/><stop offset="0.04" stop-color="#fee62d"/><stop offset="0.12" stop-color="#fed41a"/><stop offset="0.2" stop-color="#fdc90f"/><stop offset="0.28" stop-color="#fdc60b"/><stop offset="0.67" stop-color="#f28f3f"/><stop offset="0.89" stop-color="#ed693c"/><stop offset="1" stop-color="#e83e39"/></radialGradient></defs><path class="cls-1" d="M92.53,190.42l-4-6.24H87.21v6.24h-.7V177.94H89.4a4.51,4.51,0,0,1,1.33.2,2.95,2.95,0,0,1,1.81,1.57,3.05,3.05,0,0,1,.27,1.32,3.6,3.6,0,0,1-.26,1.42,2.64,2.64,0,0,1-.71,1,3.28,3.28,0,0,1-1.1.57,5,5,0,0,1-1.38.18l4,6.24ZM91.86,180a2,2,0,0,0-.57-.74,2.67,2.67,0,0,0-.86-.43,3.6,3.6,0,0,0-1.05-.15H87.21v4.8h2.36a2.57,2.57,0,0,0,1.81-.63,2.31,2.31,0,0,0,.69-1.81A2.38,2.38,0,0,0,91.86,180Z" transform="translate(-4.97 -13.96)"/><path class="cls-1" d="M100.2,190.42V177.94h6v.72h-5.28v4.54h5.28V184h-5.28v5.73h5.28v.72Z" transform="translate(-4.97 -13.96)"/><path class="cls-1" d="M117.94,190.31a4.58,4.58,0,0,1-1.61.25,3.49,3.49,0,0,1-3.68-2.71l.71-.24a2.79,2.79,0,0,0,3,2.23,3.17,3.17,0,0,0,2.12-.66,2.51,2.51,0,0,0,.78-2,2.67,2.67,0,0,0-.92-2.07,4.19,4.19,0,0,0-.75-.5c-.34-.19-.77-.4-1.3-.63a8.34,8.34,0,0,1-2-1.16,2.59,2.59,0,0,1-.91-2.08,2.62,2.62,0,0,1,.92-2.08,3.68,3.68,0,0,1,5.35.84l-.68.3a2.39,2.39,0,0,0-.84-.86,3,3,0,0,0-1.59-.38,2.51,2.51,0,0,0-1.71.58,2,2,0,0,0-.74,1.6,2,2,0,0,0,.77,1.56,9.4,9.4,0,0,0,1.75.94A14.19,14.19,0,0,1,118,184a5.7,5.7,0,0,1,1,.72,3.39,3.39,0,0,1,1,2.49A3,3,0,0,1,117.94,190.31Z" transform="translate(-4.97 -13.96)"/><path class="cls-1" d="M137.61,188.79a6.83,6.83,0,1,1,1.8-4.61A6.18,6.18,0,0,1,137.61,188.79Zm-.51-8.72a5.81,5.81,0,1,0-4.12,9.81,5.63,5.63,0,0,0,4.12-1.58,6.12,6.12,0,0,0,0-8.23Z" transform="translate(-4.97 -13.96)"/><path class="cls-1" d="M152.72,190.42l-4-6.24h-1.34v6.24h-.7V177.94h2.88a4.46,4.46,0,0,1,1.33.2,3,3,0,0,1,1.08.6,2.73,2.73,0,0,1,.73,1A3.05,3.05,0,0,1,153,181a3.61,3.61,0,0,1-.25,1.42,2.55,2.55,0,0,1-.72,1,3.23,3.23,0,0,1-1.09.57,5,5,0,0,1-1.38.18l4,6.24ZM152.06,180a2,2,0,0,0-.58-.74,2.67,2.67,0,0,0-.86-.43,3.51,3.51,0,0,0-1.05-.15h-2.16v4.8h2.36a2.59,2.59,0,0,0,1.81-.63,2.31,2.31,0,0,0,.69-1.81A2.38,2.38,0,0,0,152.06,180Z" transform="translate(-4.97 -13.96)"/><path class="cls-1" d="M162.85,178.66v11.76h-.72V178.66h-2.76v-.72h6.24v.72Z" transform="translate(-4.97 -13.96)"/><path class="cls-2" d="M176,42.79A48.34,48.34,0,0,0,157.94,22.3c-15.85-10-32.66-10.67-49.85-3.83a58.79,58.79,0,0,0-21.34,14C89.28,26,92.59,20.28,98.89,16.26c.41-.27,1.44-.33,1-1.18s-1.14-.06-1.61.15A49.57,49.57,0,0,0,74.8,37.1c-7.3,13.56-7.67,27.62-2.47,41.8A56.71,56.71,0,0,0,88.56,103C81.52,101,76.18,98,71,90.28c-.27-.39-.37-1.23-1.16-.81s-.11,1,.07,1.39a48.41,48.41,0,0,0,12.17,16c13.61,11.54,29.37,15.33,46.79,11.05,12.27-3,22.54-8.45,30.27-16.73-3.11,6.57-7.23,13-12.15,16.2-.45.29-1.37.45-.9,1.25s1,0,1.42-.16a50.19,50.19,0,0,0,22.88-20.62c7-12.12,8.38-25,4.72-38.29A57.38,57.38,0,0,0,158.65,31.9c6.53,2.4,12.4,5.62,16.27,11.45.26.39.41,1.22,1.18.81S176.19,43.21,176,42.79ZM165.76,81.56s0,0,0-.06Zm.16-17.19c1.39,23-16.6,42.81-40.19,44.23S81.91,92.53,80.52,69.53,97.12,26.72,120.7,25.3,164.53,41.37,165.92,64.37Z" transform="translate(-4.97 -13.96)"/><rect class="cls-1" y="155.63" width="235.94" height="1"/><path class="cls-1" d="M22.65,136.56v25.83H21.07V136.56H15V135h13.7v1.58Z" transform="translate(-4.97 -13.96)"/><path class="cls-1" d="M55.93,162.78l-6.83-23-6.88,23L33.43,135H35l7.18,22.42,7-22.92L56,157.4,63.18,135H64.8Z" transform="translate(-4.97 -13.96)"/><path class="cls-1" d="M92.9,158.82a13.77,13.77,0,0,1-10.18,4,14.1,14.1,0,1,1,0-28.18,13.47,13.47,0,0,1,14.13,14.09A13.66,13.66,0,0,1,92.9,158.82Zm-1.12-19.15a12.24,12.24,0,0,0-9.06-3.54,12.54,12.54,0,1,0,0,25.07,12.41,12.41,0,0,0,9.06-3.45,13.42,13.42,0,0,0,0-18.08Z" transform="translate(-4.97 -13.96)"/><path class="cls-1" d="M128,162.39l-8.71-13.7h-3v13.7h-1.54V135h6.34a9.69,9.69,0,0,1,2.92.44,6.79,6.79,0,0,1,2.38,1.31,6.54,6.54,0,0,1,1.59,2.13,6.74,6.74,0,0,1,.59,2.92,7.93,7.93,0,0,1-.55,3.11A5.63,5.63,0,0,1,126.5,147a6.37,6.37,0,0,1-2.4,1.24,10.73,10.73,0,0,1-3,.41l8.79,13.7Zm-1.46-22.93a4.43,4.43,0,0,0-1.27-1.62,5.66,5.66,0,0,0-1.88-1,8.09,8.09,0,0,0-2.3-.32h-4.76v10.55h5.18a5.7,5.7,0,0,0,4-1.38,5.12,5.12,0,0,0,1.51-4A5.24,5.24,0,0,0,126.56,139.46Z" transform="translate(-4.97 -13.96)"/><path class="cls-1" d="M138.23,162.39V135h1.54v27.41Z" transform="translate(-4.97 -13.96)"/><path class="cls-1" d="M157.66,162.85,148.86,135h1.62l7.18,22.65L164.87,135h1.65Z" transform="translate(-4.97 -13.96)"/><path class="cls-1" d="M173.61,162.39V135h13.17v1.58h-11.6v10h11.6v1.69h-11.6v12.59h11.6v1.57Z" transform="translate(-4.97 -13.96)"/><path class="cls-1" d="M208.05,162.39l-8.72-13.7h-3v13.7h-1.54V135h6.33a9.64,9.64,0,0,1,2.92.44,6.7,6.7,0,0,1,2.38,1.31,6.27,6.27,0,0,1,1.59,2.13,6.74,6.74,0,0,1,.6,2.92,7.93,7.93,0,0,1-.56,3.11,5.61,5.61,0,0,1-1.57,2.15,6.53,6.53,0,0,1-2.4,1.24,10.73,10.73,0,0,1-3,.41l8.79,13.7Zm-1.46-22.93a4.43,4.43,0,0,0-1.27-1.62,5.76,5.76,0,0,0-1.88-1,8.14,8.14,0,0,0-2.3-.32h-4.76v10.55h5.18a5.66,5.66,0,0,0,4-1.38,5.13,5.13,0,0,0,1.52-4A5.39,5.39,0,0,0,206.59,139.46Z" transform="translate(-4.97 -13.96)"/><path class="cls-1" d="M226.64,162.16a10.36,10.36,0,0,1-3.53.54q-6.29,0-8.1-5.95l1.58-.54c.89,3.28,3.07,4.92,6.52,4.92a6.91,6.91,0,0,0,4.65-1.46,5.49,5.49,0,0,0,1.73-4.38,5.78,5.78,0,0,0-2-4.53,8.91,8.91,0,0,0-1.65-1.11c-.74-.41-1.69-.87-2.84-1.38a18.26,18.26,0,0,1-4.45-2.54,6.18,6.18,0,0,1,0-9.13,7.16,7.16,0,0,1,4.92-1.77q4.83,0,6.83,3.61l-1.5.65a5.19,5.19,0,0,0-1.84-1.88,6.49,6.49,0,0,0-3.49-.85,5.63,5.63,0,0,0-3.76,1.27,4.37,4.37,0,0,0-1.62,3.53,4.41,4.41,0,0,0,1.69,3.42,20.81,20.81,0,0,0,3.84,2.07,28.61,28.61,0,0,1,3.11,1.6,10.83,10.83,0,0,1,2.11,1.59,7.31,7.31,0,0,1,2.23,5.45Q231.06,160.51,226.64,162.16Z" transform="translate(-4.97 -13.96)"/></svg>