<svg id="Layer_1" data-name="Layer 1" xmlns="http://www.w3.org/2000/svg" viewBox="0 0 188.62 184.2"><path d="M192.43,58.43A84.17,84.17,0,0,0,161,22.72C133.34,5.31,104,4.11,74.07,16c-14.56,5.8-27.14,13.81-37.21,24.45C41.28,29.22,47.06,19.19,58,12.18c.71-.46,2.51-.57,1.74-2-.89-1.69-2-.11-2.82.27C39,18.71,25.27,31.36,16,48.5,3.32,72.14,2.68,96.65,11.73,121.37c6,16.41,15.17,30.67,28.3,41.94-12.27-3.5-21.59-8.62-30.7-22.1-.46-.68-.64-2.14-2-1.42s-.2,1.75.13,2.43a84.19,84.19,0,0,0,21.21,27.92c23.71,20.11,51.18,26.72,81.55,19.26,21.4-5.25,39.29-14.72,52.77-29.16-5.43,11.45-12.61,22.7-21.18,28.23-.78.51-2.4.8-1.58,2.19s1.76.06,2.48-.28c17.1-7.95,30.54-19.84,39.88-35.95,12.25-21.13,14.61-43.56,8.24-66.74-5.19-18.88-14.45-35.21-28.61-48.24,11.39,4.19,21.62,9.79,28.35,19.95.46.69.72,2.13,2.06,1.42S192.77,59.16,192.43,58.43ZM174.59,126c-.06,0-.08-.07,0-.09Zm.28-29.95c2.42,40.1-28.94,74.61-70,77.1S28.43,145.13,26,105,55,30.42,96.06,27.94,172.45,56,174.87,96.05Z" transform="translate(-5.61 -8.18)"/></svg>