<svg id="Layer_1" data-name="Layer 1" xmlns="http://www.w3.org/2000/svg" xmlns:xlink="http://www.w3.org/1999/xlink" viewBox="0 0 178.38 36.95"><defs><style>.cls-1{fill:#ffffe3;}.cls-2{fill:url(#radial-gradient);}.cls-3{fill:url(#linear-gradient);}.cls-4{fill:url(#linear-gradient-2);}.cls-5{fill:url(#linear-gradient-3);}.cls-6{fill:url(#linear-gradient-4);}.cls-7{fill:url(#linear-gradient-5);}.cls-8{fill:url(#linear-gradient-6);}.cls-9{fill:url(#linear-gradient-7);}.cls-10{fill:url(#linear-gradient-8);}.cls-11{fill:url(#linear-gradient-9);}.cls-12{fill:url(#linear-gradient-10);}</style><radialGradient id="radial-gradient" cx="31.84" cy="-381.57" r="12.81" gradientTransform="translate(272.94 340.87) rotate(-40.04)" gradientUnits="userSpaceOnUse"><stop offset="0" stop-color="#fff23a"/><stop offset="0.04" stop-color="#fee62d"/><stop offset="0.12" stop-color="#fed41a"/><stop offset="0.2" stop-color="#fdc90f"/><stop offset="0.28" stop-color="#fdc60b"/><stop offset="0.67" stop-color="#f28f3f"/><stop offset="0.89" stop-color="#ed693c"/><stop offset="1" stop-color="#e83e39"/></radialGradient><linearGradient id="linear-gradient" x1="78.52" y1="51.57" x2="78.52" y2="39.49" gradientTransform="matrix(1, 0, 0.36, 1, -14.91, -0.06)" gradientUnits="userSpaceOnUse"><stop offset="0" stop-color="#034755" stop-opacity="0"/><stop offset="0.14" stop-color="#034755" stop-opacity="0.16"/><stop offset="0.72" stop-color="#034955" stop-opacity="0.76"/><stop offset="1" stop-color="#034a55"/></linearGradient><linearGradient id="linear-gradient-2" x1="97.16" y1="51.79" x2="97.16" y2="39.32" xlink:href="#linear-gradient"/><linearGradient id="linear-gradient-3" x1="116.28" y1="51.74" x2="116.28" y2="39.32" xlink:href="#linear-gradient"/><linearGradient id="linear-gradient-4" x1="141.08" y1="51.57" x2="141.08" y2="39.49" xlink:href="#linear-gradient"/><linearGradient id="linear-gradient-5" x1="153" y1="51.57" x2="153" y2="39.49" xlink:href="#linear-gradient"/><linearGradient id="linear-gradient-6" x1="168.02" y1="51.57" x2="168.02" y2="39.29" xlink:href="#linear-gradient"/><linearGradient id="linear-gradient-7" x1="179.89" y1="51.57" x2="179.89" y2="39.49" xlink:href="#linear-gradient"/><linearGradient id="linear-gradient-8" x1="193.31" y1="51.57" x2="193.31" y2="39.49" xlink:href="#linear-gradient"/><linearGradient id="linear-gradient-9" x1="207.85" y1="51.64" x2="207.85" y2="39.36" xlink:href="#linear-gradient"/><linearGradient id="linear-gradient-10" x1="57.35" y1="56.55" x2="57.13" y2="39.19" gradientTransform="matrix(1, -0.01, -0.01, 0.79, 0.58, 9.59)" gradientUnits="userSpaceOnUse"><stop offset="0" stop-color="#fff23a" stop-opacity="0"/><stop offset="0.01" stop-color="#ffef37" stop-opacity="0"/><stop offset="0.28" stop-color="#fdc60b" stop-opacity="0"/><stop offset="0.67" stop-color="#f28f3f" stop-opacity="0.1"/><stop offset="0.89" stop-color="#ed693c" stop-opacity="0.3"/><stop offset="1" stop-color="#e83e39" stop-opacity="0.4"/></linearGradient></defs><path class="cls-1" d="M72.39,38.91a.12.12,0,0,1-.12-.12V22.05H68.43a.12.12,0,0,1-.12-.13v-1a.12.12,0,0,1,.12-.13h8.95a.12.12,0,0,1,.12.13v1a.12.12,0,0,1-.12.13H73.54V38.79a.12.12,0,0,1-.12.12Z" transform="translate(-39.81 -16.47)"/><path class="cls-1" d="M77.38,20.9v1h-4V38.79h-1V21.92h-4v-1h8.95m0-.25H68.43a.25.25,0,0,0-.25.25v1a.25.25,0,0,0,.25.25h3.71V38.79a.25.25,0,0,0,.25.25h1a.25.25,0,0,0,.25-.25V22.17h3.71a.25.25,0,0,0,.25-.25v-1a.25.25,0,0,0-.25-.25Z" transform="translate(-39.81 -16.47)"/><path class="cls-1" d="M86.2,39.16a.11.11,0,0,1-.12-.08L80.34,20.94a.13.13,0,0,1,0-.12.12.12,0,0,1,.1-.05h1a.13.13,0,0,1,.12.09l4.56,14.25,4.42-14.57a.13.13,0,0,1,.12-.09h0a.11.11,0,0,1,.12.09l4.4,14.57,4.56-14.25a.12.12,0,0,1,.12-.09h1.05a.12.12,0,0,1,.1.05.17.17,0,0,1,0,.12L95.26,39.08a.12.12,0,0,1-.12.08h0a.13.13,0,0,1-.12-.09l-4.34-14.6-4.36,14.6a.13.13,0,0,1-.12.09Z" transform="translate(-39.81 -16.47)"/><path class="cls-1" d="M90.68,20.57l4.51,15L99.88,20.9h1.05L95.14,39,90.68,24,86.2,39,80.46,20.9h1l4.69,14.63,4.53-15m0-.25a.26.26,0,0,0-.24.18l-4.3,14.19L81.7,20.82a.25.25,0,0,0-.24-.17h-1a.26.26,0,0,0-.2.1.25.25,0,0,0,0,.22L86,39.11a.25.25,0,0,0,.24.18h0a.26.26,0,0,0,.24-.18L90.68,24.9,94.9,39.11a.26.26,0,0,0,.24.18h0a.25.25,0,0,0,.24-.18L101.17,21a.25.25,0,0,0,0-.22.26.26,0,0,0-.2-.1H99.88a.25.25,0,0,0-.24.17L95.2,34.69,90.92,20.5a.25.25,0,0,0-.24-.18Z" transform="translate(-39.81 -16.47)"/><path class="cls-1" d="M112.63,39.16a8.93,8.93,0,0,1-9.32-9.32,8.93,8.93,0,0,1,9.32-9.32,9.26,9.26,0,0,1,6.73,2.59A9.16,9.16,0,0,1,122,29.84a9.06,9.06,0,0,1-2.62,6.71A9.17,9.17,0,0,1,112.63,39.16Zm0-17.39a7.77,7.77,0,0,0-8,8.07,7.72,7.72,0,0,0,8,8.05,8,8,0,0,0,5.83-2.22,8,8,0,0,0,2.24-5.83,7.73,7.73,0,0,0-8.07-8.07Z" transform="translate(-39.81 -16.47)"/><path class="cls-1" d="M112.63,20.65a9.1,9.1,0,0,1,6.64,2.55,9,9,0,0,1,2.58,6.64,9.21,9.21,0,1,1-18.41,0,8.79,8.79,0,0,1,9.19-9.19m0,17.36a7.77,7.77,0,0,0,8.19-8.17,8.18,8.18,0,1,0-16.36,0A7.84,7.84,0,0,0,112.63,38m0-17.61a9,9,0,0,0-9.44,9.44,9.62,9.62,0,0,0,16.26,6.79,9.18,9.18,0,0,0,2.65-6.79A9.26,9.26,0,0,0,119.45,23a9.35,9.35,0,0,0-6.82-2.63Zm0,17.36a7.6,7.6,0,0,1-7.92-7.92,7.93,7.93,0,1,1,15.86,0,7.52,7.52,0,0,1-7.94,7.92Z" transform="translate(-39.81 -16.47)"/><path class="cls-1" d="M142.2,38.91a.11.11,0,0,1-.11-.06L136.44,30H134.7v8.82a.12.12,0,0,1-.12.12h-1a.12.12,0,0,1-.13-.12V20.9a.13.13,0,0,1,.13-.13h4.13a6.2,6.2,0,0,1,1.94.3,4.5,4.5,0,0,1,1.6.87,4.18,4.18,0,0,1,1.07,1.44,4.47,4.47,0,0,1,.4,1.95,5.26,5.26,0,0,1-.37,2.08,3.9,3.9,0,0,1-1.06,1.45,4.46,4.46,0,0,1-1.62.84,6.65,6.65,0,0,1-1.78.26l5.61,8.76a.12.12,0,0,1,0,.13.13.13,0,0,1-.11.06ZM138,28.69a3.58,3.58,0,0,0,2.51-.87,3.23,3.23,0,0,0,.95-2.51,3.39,3.39,0,0,0-.29-1.44,2.83,2.83,0,0,0-.79-1,3.6,3.6,0,0,0-1.19-.6,5,5,0,0,0-1.46-.21h-3v6.64Z" transform="translate(-39.81 -16.47)"/><path class="cls-1" d="M137.71,20.9a6.06,6.06,0,0,1,1.91.29,4.32,4.32,0,0,1,1.55.85,4.16,4.16,0,0,1,1,1.39,4.39,4.39,0,0,1,.39,1.9,5,5,0,0,1-.37,2,3.67,3.67,0,0,1-1,1.41,4.59,4.59,0,0,1-1.57.81,7.24,7.24,0,0,1-2,.26l5.74,9h-1.2l-5.69-8.95h-1.93v9h-1V20.9h4.13m-3.13,7.92H138a3.7,3.7,0,0,0,2.59-.91,3.34,3.34,0,0,0,1-2.6,3.45,3.45,0,0,0-.3-1.49,2.88,2.88,0,0,0-.82-1.06,3.75,3.75,0,0,0-1.23-.62,5.23,5.23,0,0,0-1.5-.22h-3.11v6.9m3.13-8.17h-4.13a.25.25,0,0,0-.25.25V38.79a.25.25,0,0,0,.25.25h1a.25.25,0,0,0,.25-.25v-8.7h1.54L142,38.92a.24.24,0,0,0,.21.12h1.2a.26.26,0,0,0,.22-.13.27.27,0,0,0,0-.26l-5.5-8.57a7.23,7.23,0,0,0,1.6-.26,4.53,4.53,0,0,0,1.66-.86,3.86,3.86,0,0,0,1.09-1.5,5.33,5.33,0,0,0,.39-2.13,4.63,4.63,0,0,0-.42-2,4.37,4.37,0,0,0-1.1-1.47,4.58,4.58,0,0,0-1.64-.9,6.46,6.46,0,0,0-2-.3Zm-2.88,1.52h2.86a4.8,4.8,0,0,1,1.43.21,3.5,3.5,0,0,1,1.14.58,2.66,2.66,0,0,1,.76,1,3.31,3.31,0,0,1,.27,1.39,3.14,3.14,0,0,1-.9,2.42,3.52,3.52,0,0,1-2.43.84h-3.13v-6.4Z" transform="translate(-39.81 -16.47)"/><rect class="cls-1" x="108.92" y="4.3" width="1.25" height="18.14" rx="0.13"/><path class="cls-1" d="M149.86,20.9V38.79h-1V20.9h1m0-.25h-1a.25.25,0,0,0-.25.25V38.79a.25.25,0,0,0,.25.25h1a.25.25,0,0,0,.25-.25V20.9a.25.25,0,0,0-.25-.25Z" transform="translate(-39.81 -16.47)"/><path class="cls-1" d="M161.54,39.21a.12.12,0,0,1-.12-.08l-5.74-18.19a.17.17,0,0,1,0-.12.12.12,0,0,1,.1-.05h1a.12.12,0,0,1,.12.09l4.57,14.41,4.59-14.41a.13.13,0,0,1,.12-.09h1.08a.14.14,0,0,1,.1.05.17.17,0,0,1,0,.12l-5.79,18.19a.13.13,0,0,1-.12.08Z" transform="translate(-39.81 -16.47)"/><path class="cls-1" d="M167.33,20.9l-5.79,18.19L155.8,20.9h1l4.69,14.78,4.71-14.78h1.08m0-.25h-1.08a.25.25,0,0,0-.24.17l-4.47,14-4.45-14a.25.25,0,0,0-.24-.17h-1a.26.26,0,0,0-.2.1.25.25,0,0,0,0,.22l5.74,18.19a.25.25,0,0,0,.24.18h0a.26.26,0,0,0,.24-.18L167.57,21a.25.25,0,0,0,0-.22.26.26,0,0,0-.2-.1Zm0,.5Z" transform="translate(-39.81 -16.47)"/><path class="cls-1" d="M172,38.91a.12.12,0,0,1-.12-.12V20.9a.12.12,0,0,1,.12-.13h8.59a.13.13,0,0,1,.13.13v1a.13.13,0,0,1-.13.13H173.1v6.26h7.44a.13.13,0,0,1,.13.13v1.1a.13.13,0,0,1-.13.13H173.1v8h7.44a.12.12,0,0,1,.13.12v1a.12.12,0,0,1-.13.12Z" transform="translate(-39.81 -16.47)"/><path class="cls-1" d="M180.55,20.9v1H173v6.52h7.57v1.1H173v8.22h7.57v1H172V20.9h8.6m0-.25H172a.25.25,0,0,0-.25.25V38.79A.25.25,0,0,0,172,39h8.6a.25.25,0,0,0,.25-.25v-1a.25.25,0,0,0-.25-.25h-7.32V29.79h7.32a.25.25,0,0,0,.25-.25v-1.1a.25.25,0,0,0-.25-.25h-7.32v-6h7.32a.25.25,0,0,0,.25-.25v-1a.25.25,0,0,0-.25-.25Z" transform="translate(-39.81 -16.47)"/><path class="cls-1" d="M194.43,38.91a.14.14,0,0,1-.11-.06L188.67,30h-1.73v8.82a.12.12,0,0,1-.13.12h-1a.12.12,0,0,1-.13-.12V20.9a.13.13,0,0,1,.13-.13h4.13a6.27,6.27,0,0,1,1.95.3,4.45,4.45,0,0,1,1.59.87,4.18,4.18,0,0,1,1.07,1.44,4.47,4.47,0,0,1,.4,1.95,5.26,5.26,0,0,1-.37,2.08,3.9,3.9,0,0,1-1.06,1.45,4.5,4.5,0,0,1-1.61.84,6.78,6.78,0,0,1-1.79.26l5.62,8.76a.15.15,0,0,1,0,.13.11.11,0,0,1-.11.06Zm-4.24-10.22a3.57,3.57,0,0,0,2.51-.87,3.23,3.23,0,0,0,1-2.51,3.39,3.39,0,0,0-.29-1.44,2.72,2.72,0,0,0-.79-1,3.46,3.46,0,0,0-1.18-.6,5,5,0,0,0-1.47-.21h-3v6.64Z" transform="translate(-39.81 -16.47)"/><path class="cls-1" d="M189.94,20.9a6,6,0,0,1,1.91.29,4.24,4.24,0,0,1,1.55.85,4,4,0,0,1,1,1.39,4.39,4.39,0,0,1,.39,1.9,5.19,5.19,0,0,1-.36,2,3.79,3.79,0,0,1-1,1.41,4.5,4.5,0,0,1-1.57.81,7.24,7.24,0,0,1-2,.26l5.74,9h-1.2l-5.69-8.95h-1.93v9h-1V20.9h4.13m-3.13,7.92h3.38a3.73,3.73,0,0,0,2.6-.91,3.34,3.34,0,0,0,1-2.6,3.45,3.45,0,0,0-.3-1.49,2.91,2.91,0,0,0-.83-1.06,3.75,3.75,0,0,0-1.23-.62,5.23,5.23,0,0,0-1.5-.22h-3.11v6.9m3.13-8.17h-4.13a.25.25,0,0,0-.25.25V38.79a.25.25,0,0,0,.25.25h1a.25.25,0,0,0,.25-.25v-8.7h1.54l5.62,8.83a.24.24,0,0,0,.21.12h1.2a.25.25,0,0,0,.22-.13.27.27,0,0,0,0-.26l-5.5-8.57a7.23,7.23,0,0,0,1.6-.26A4.53,4.53,0,0,0,193.6,29a4,4,0,0,0,1.1-1.5,5.51,5.51,0,0,0,.38-2.13,4.78,4.78,0,0,0-.41-2A4.43,4.43,0,0,0,191.92,21a6.46,6.46,0,0,0-2-.3Zm-2.88,1.52h2.86a4.76,4.76,0,0,1,1.43.21,3.56,3.56,0,0,1,1.15.58,2.74,2.74,0,0,1,.75,1,3.31,3.31,0,0,1,.28,1.39,3.14,3.14,0,0,1-.91,2.42,3.52,3.52,0,0,1-2.43.84h-3.13v-6.4Z" transform="translate(-39.81 -16.47)"/><path class="cls-1" d="M204.26,39.11a5.15,5.15,0,0,1-5.4-4,.12.12,0,0,1,.08-.15l1-.36h.1a.16.16,0,0,1,.06.08,3.87,3.87,0,0,0,4.14,3.12,4.35,4.35,0,0,0,3-.93,3.46,3.46,0,0,0,1.09-2.76A3.7,3.7,0,0,0,207,31.29a5.67,5.67,0,0,0-1-.71c-.48-.26-1.1-.57-1.85-.9A12.43,12.43,0,0,1,201.17,28a3.91,3.91,0,0,1-1.34-3.08,3.87,3.87,0,0,1,1.37-3.08,5.38,5.38,0,0,1,7.86,1.24.17.17,0,0,1,0,.1.14.14,0,0,1-.07.08l-1,.42H208a.14.14,0,0,1-.11-.06,3.26,3.26,0,0,0-1.15-1.18,4.12,4.12,0,0,0-2.22-.54,3.59,3.59,0,0,0-2.38.8,2.81,2.81,0,0,0,.06,4.35,13.34,13.34,0,0,0,2.47,1.33,18.21,18.21,0,0,1,2,1.05,7,7,0,0,1,1.4,1.06,4.9,4.9,0,0,1,1.49,3.64,4.43,4.43,0,0,1-3,4.6A6.91,6.91,0,0,1,204.26,39.11Z" transform="translate(-39.81 -16.47)"/><path class="cls-1" d="M204.49,20.8A4.67,4.67,0,0,1,209,23.15l-1,.43a3.38,3.38,0,0,0-1.2-1.23,4.23,4.23,0,0,0-2.28-.55,3.68,3.68,0,0,0-2.46.83,2.84,2.84,0,0,0-1.05,2.3,2.88,2.88,0,0,0,1.1,2.23,13,13,0,0,0,2.51,1.35,22.17,22.17,0,0,1,2,1,7.5,7.5,0,0,1,1.38,1,4.83,4.83,0,0,1,1.45,3.56,4.32,4.32,0,0,1-2.88,4.49,6.93,6.93,0,0,1-2.31.35A5,5,0,0,1,199,35.1l1-.35A4,4,0,0,0,204.26,38a4.49,4.49,0,0,0,3-1,3.56,3.56,0,0,0,1.13-2.86,3.76,3.76,0,0,0-1.33-2.95,5.53,5.53,0,0,0-1.07-.73q-.74-.41-1.86-.9a11.81,11.81,0,0,1-2.9-1.66,3.74,3.74,0,0,1-1.31-3,3.74,3.74,0,0,1,1.33-3,4.67,4.67,0,0,1,3.21-1.15m0-.25a4.94,4.94,0,0,0-3.37,1.21,4,4,0,0,0-1.42,3.17,4,4,0,0,0,1.39,3.17,12.2,12.2,0,0,0,3,1.7,20.25,20.25,0,0,1,1.84.89,5,5,0,0,1,1,.69,3.49,3.49,0,0,1,1.25,2.77,3.36,3.36,0,0,1-1,2.67,4.27,4.27,0,0,1-2.87.89,3.76,3.76,0,0,1-4-3,.22.22,0,0,0-.12-.16.27.27,0,0,0-.12,0l-.08,0-1,.35a.25.25,0,0,0-.16.31,5.27,5.27,0,0,0,5.52,4.06,7.14,7.14,0,0,0,2.39-.37,4.55,4.55,0,0,0,3-4.72,5,5,0,0,0-1.53-3.73,7.11,7.11,0,0,0-1.42-1.08,18.64,18.64,0,0,0-2.06-1.05A13.46,13.46,0,0,1,202.24,27a2.68,2.68,0,0,1-.05-4.15,3.47,3.47,0,0,1,2.3-.77,4,4,0,0,1,2.15.51,3.26,3.26,0,0,1,1.12,1.15.26.26,0,0,0,.21.12l.1,0,1-.43a.24.24,0,0,0,.13-.15.23.23,0,0,0,0-.2,4.93,4.93,0,0,0-4.68-2.48Z" transform="translate(-39.81 -16.47)"/><path class="cls-2" d="M63.69,22.89a10.68,10.68,0,0,0-4-4.56,11.71,11.71,0,0,0-11.11-.86,13,13,0,0,0-4.75,3.13A7,7,0,0,1,46.51,17c.1-.06.33-.07.23-.26s-.26,0-.36,0a11,11,0,0,0-5.23,4.87,10.93,10.93,0,0,0-.55,9.32,12.51,12.51,0,0,0,3.61,5.36,6.33,6.33,0,0,1-3.92-2.82c-.06-.09-.08-.28-.26-.19s0,.23,0,.31a10.65,10.65,0,0,0,2.71,3.57,11.21,11.21,0,0,0,10.42,2.47,13.34,13.34,0,0,0,6.75-3.73,8.93,8.93,0,0,1-2.71,3.61c-.1.06-.3.1-.2.28s.22,0,.32,0a11.25,11.25,0,0,0,5.1-4.59,10.8,10.8,0,0,0,1.05-8.54,12.81,12.81,0,0,0-3.66-6.16A7,7,0,0,1,63.46,23c0,.08.09.27.26.18S63.74,23,63.69,22.89Zm-2.28,8.64s0,0,0,0Zm0-3.83A9.54,9.54,0,1,1,51.38,19,9.42,9.42,0,0,1,61.45,27.7Z" transform="translate(-39.81 -16.47)"/><path class="cls-3" d="M83.41,50.89,73.15,39.49h-1l10.26,11.4h-4l.63.7H88l-.62-.7Z" transform="translate(-39.81 -16.47)"/><path class="cls-4" d="M94.72,39.32l4.67,10.15L85.77,39.32l5.3,12.27h1l-4.22-9.9,13.63,10.12L96.9,41.69l13.59,9.9h1.05Z" transform="translate(-39.81 -16.47)"/><path class="cls-5" d="M120.42,41.07a21,21,0,0,0-8.21-1.75c-2.71,0-4.39.58-5.06,1.73s-.19,2.66,1.46,4.49A18,18,0,0,0,115.19,50a21,21,0,0,0,8.21,1.75q4,0,5.08-1.73T127,45.54A18,18,0,0,0,120.42,41.07Zm6.88,8.45c-.6,1-2.11,1.56-4.51,1.56a18.67,18.67,0,0,1-7.27-1.56,16.38,16.38,0,0,1-5.89-4q-2.17-2.43-1.28-4T112.83,40a18.84,18.84,0,0,1,7.29,1.52,16.3,16.3,0,0,1,5.88,4C127.46,47.17,127.89,48.49,127.3,49.52Z" transform="translate(-39.81 -16.47)"/><path class="cls-6" d="M141.93,39.49l-.25,6h-1.93l-5.44-6h-1l10.88,12.1h4.13a6.69,6.69,0,0,0,1.73-.2,2,2,0,0,0,1-.57,1.09,1.09,0,0,0,.19-.94,2.82,2.82,0,0,0-.77-1.29,7.74,7.74,0,0,0-1.6-1.37,9,9,0,0,0-1.88-.95,11,11,0,0,0-2.06-.55,12.79,12.79,0,0,0-2.14-.18l.3-6Zm8.15,10.12a.76.76,0,0,1-.18.72,1.93,1.93,0,0,1-.85.42,6,6,0,0,1-1.37.14h-3.11l-4.19-4.66h3.38a8.59,8.59,0,0,1,3.14.61,6.84,6.84,0,0,1,2.58,1.77A2.39,2.39,0,0,1,150.08,49.61Z" transform="translate(-39.81 -16.47)"/><path class="cls-7" d="M148.59,39.49l10.89,12.1h1l-10.89-12.1Z" transform="translate(-39.81 -16.47)"/><path class="cls-8" d="M161.08,39.29l5.34,12.3h1.05l-4.31-10,13.7,10h1.08Z" transform="translate(-39.81 -16.47)"/><path class="cls-9" d="M171.68,39.49l10.89,12.1h8.59l-.63-.7H183l-4-4.4h7.57l-.67-.75h-7.57l-5-5.55h7.57l-.63-.7Z" transform="translate(-39.81 -16.47)"/><path class="cls-10" d="M194.16,39.49l-.25,6H192l-5.44-6h-1l10.88,12.1h4.14a6.74,6.74,0,0,0,1.73-.2,1.94,1.94,0,0,0,1-.57,1.09,1.09,0,0,0,.2-.94,3,3,0,0,0-.77-1.29,8.3,8.3,0,0,0-1.6-1.37,9.48,9.48,0,0,0-1.88-.95,11.28,11.28,0,0,0-2.07-.55,12.67,12.67,0,0,0-2.13-.18l.29-6Zm8.15,10.12a.76.76,0,0,1-.18.72,1.88,1.88,0,0,1-.85.42,6,6,0,0,1-1.37.14H196.8l-4.19-4.66H196a8.55,8.55,0,0,1,3.14.61,6.76,6.76,0,0,1,2.58,1.77A2.28,2.28,0,0,1,202.31,49.61Z" transform="translate(-39.81 -16.47)"/><path class="cls-11" d="M206.39,39.59a13.65,13.65,0,0,0-2.52-.23q-4.11,0-2.92,2.62l1.24.24q-1.08-2.17,2.31-2.17a10,10,0,0,1,3.61.64A7.31,7.31,0,0,1,211,42.63c.72.8.88,1.46.47,2a1.87,1.87,0,0,1-.63.5,13.27,13.27,0,0,1-1.31.61,5.09,5.09,0,0,0-1.9,1.11c-.41.51-.24,1.18.51,2a7.84,7.84,0,0,0,3.15,2,10.67,10.67,0,0,0,3.9.78c2.11,0,3.12-.54,3-1.6L217,49.77a.88.88,0,0,1-.45.83,3.62,3.62,0,0,1-1.95.38,8.33,8.33,0,0,1-3-.56,6.21,6.21,0,0,1-2.46-1.56c-.52-.58-.6-1.08-.25-1.51a5.89,5.89,0,0,1,1.68-.91,9,9,0,0,0,1.4-.71,2.28,2.28,0,0,0,.74-.7c.39-.64.15-1.44-.71-2.4A10,10,0,0,0,206.39,39.59Z" transform="translate(-39.81 -16.47)"/><path class="cls-12" d="M71,48.55a3.53,3.53,0,0,1-1.94,2.84c-2.47,1.52-6.06,1.92-10.45,1.4a28.9,28.9,0,0,1-6-1.33,12.48,12.48,0,0,0,4.2,1.77c.11,0,.34,0,.33.12s-.24,0-.37,0a22.11,22.11,0,0,1-7.2-2.25C46.69,49.58,45.26,47.86,45,46a3.56,3.56,0,0,1,1.2-3.25c-1.33.38-2.21.84-2.6,1.88,0,.05,0,.16-.17.12s-.12-.12-.12-.17a3.13,3.13,0,0,1,1.1-2.19c1.84-1.67,4.89-2.42,9.08-2.22a28.85,28.85,0,0,1,8.19,1.49,16.19,16.19,0,0,0-4.2-1.76c-.13,0-.35,0-.32-.14s.21,0,.32,0a22.74,22.74,0,0,1,7,2.11c2.69,1.36,4.22,2.91,4.71,4.61a3.55,3.55,0,0,1-.89,3.7c1.19-.41,2.15-.92,2.43-1.7,0-.06,0-.16.17-.12S71,48.49,71,48.55ZM65,44s0,0,0,0Zm1.69,2.11c-1.92-2.85-7.73-4.95-13-4.69s-8,2.78-6,5.63,7.73,4.95,13,4.69S68.64,48.93,66.73,46.08Z" transform="translate(-39.81 -16.47)"/></svg>