<svg id="Layer_1" data-name="Layer 1" xmlns="http://www.w3.org/2000/svg" xmlns:xlink="http://www.w3.org/1999/xlink" viewBox="0 0 188.44 81.55"><defs><style>.cls-1{fill:#00a99d;}.cls-2{fill:url(#radial-gradient);}</style><radialGradient id="radial-gradient" cx="204.2" cy="381.1" r="43.83" gradientTransform="matrix(0.72, 0.66, -0.69, 0.71, 160.77, -360.78)" gradientUnits="userSpaceOnUse"><stop offset="0" stop-color="#fff23a"/><stop offset="0.04" stop-color="#fee62d"/><stop offset="0.12" stop-color="#fed41a"/><stop offset="0.2" stop-color="#fdc90f"/><stop offset="0.28" stop-color="#fdc60b"/><stop offset="0.67" stop-color="#f28f3f"/><stop offset="0.89" stop-color="#ed693c"/><stop offset="1" stop-color="#e83e39"/></radialGradient></defs><path class="cls-1" d="M131.65,34.53l-5.82-19.59L120,34.53l-7.49-23.68h1.31L119.91,30l5.92-19.52L131.71,30l6.12-19.1h1.37Z" transform="translate(-5.73 -5.85)"/><path class="cls-1" d="M164,31.16a12,12,0,0,1-20.67-8.63,11.48,11.48,0,0,1,12-12A11.89,11.89,0,0,1,164,13.86a11.77,11.77,0,0,1,3.37,8.67A11.63,11.63,0,0,1,164,31.16Zm-1-16.32a10.7,10.7,0,0,0-18.38,7.69,10.25,10.25,0,0,0,10.66,10.66A10.59,10.59,0,0,0,163,30.25a10.48,10.48,0,0,0,3-7.72A10.44,10.44,0,0,0,163,14.84Z" transform="translate(-5.73 -5.85)"/><path class="cls-1" d="M101.62,12.4V34.28h-1.33V12.4H95.15V11.07h11.61V12.4Z" transform="translate(-5.73 -5.85)"/><path class="cls-1" d="M106.4,64.14,99,52.46H96.46V64.14H95.15V40.79h5.4a8.09,8.09,0,0,1,2.48.38,5.7,5.7,0,0,1,2,1.11,5.36,5.36,0,0,1,1.36,1.81,5.92,5.92,0,0,1,.5,2.49,6.86,6.86,0,0,1-.47,2.65,4.79,4.79,0,0,1-1.34,1.83,5.63,5.63,0,0,1-2,1.06,9.1,9.1,0,0,1-2.58.34L108,64.14ZM105.16,44.6a3.66,3.66,0,0,0-1.08-1.37,4.75,4.75,0,0,0-1.6-.82,6.61,6.61,0,0,0-2-.28H96.46v9h4.41A4.85,4.85,0,0,0,104.26,50a4.38,4.38,0,0,0,1.29-3.4A4.55,4.55,0,0,0,105.16,44.6Z" transform="translate(-5.73 -5.85)"/><path class="cls-1" d="M115.1,64.14V40.79h1.31V64.14Z" transform="translate(-5.73 -5.85)"/><path class="cls-1" d="M131.64,64.53l-7.48-23.74h1.37l6.11,19.29,6.15-19.29h1.41Z" transform="translate(-5.73 -5.85)"/><path class="cls-1" d="M145.23,64.14V40.79h11.22v1.34h-9.87v8.5h9.87v1.44h-9.87V62.8h9.87v1.34Z" transform="translate(-5.73 -5.85)"/><path class="cls-1" d="M174.57,64.14l-7.42-11.68h-2.52V64.14h-1.31V40.79h5.4a8.09,8.09,0,0,1,2.48.38,5.7,5.7,0,0,1,2,1.11,5.36,5.36,0,0,1,1.36,1.81,5.92,5.92,0,0,1,.5,2.49,6.86,6.86,0,0,1-.47,2.65,4.79,4.79,0,0,1-1.34,1.83,5.63,5.63,0,0,1-2.05,1.06,9.1,9.1,0,0,1-2.58.34l7.49,11.68ZM173.33,44.6a3.66,3.66,0,0,0-1.08-1.37,4.75,4.75,0,0,0-1.6-.82,6.61,6.61,0,0,0-2-.28h-4.05v9H169A4.85,4.85,0,0,0,172.43,50a4.38,4.38,0,0,0,1.29-3.4A4.55,4.55,0,0,0,173.33,44.6Z" transform="translate(-5.73 -5.85)"/><path class="cls-1" d="M190.41,63.94a8.78,8.78,0,0,1-3,.46,6.57,6.57,0,0,1-6.9-5.07l1.35-.46a5.22,5.22,0,0,0,5.55,4.19,5.85,5.85,0,0,0,4-1.24,4.68,4.68,0,0,0,1.47-3.73,5,5,0,0,0-1.73-3.86,7.51,7.51,0,0,0-1.41-.95c-.63-.35-1.44-.74-2.42-1.18A15.52,15.52,0,0,1,183.48,50a5.28,5.28,0,0,1,0-7.79,6.12,6.12,0,0,1,4.19-1.5q4.13,0,5.82,3.07l-1.28.56a4.38,4.38,0,0,0-1.57-1.6,5.49,5.49,0,0,0-3-.72,4.79,4.79,0,0,0-3.21,1.08,3.82,3.82,0,0,0,.07,5.92,17.62,17.62,0,0,0,3.27,1.76,24.78,24.78,0,0,1,2.65,1.36,9.58,9.58,0,0,1,1.8,1.36,6.25,6.25,0,0,1,1.89,4.64C194.17,61.05,192.92,63,190.41,63.94Z" transform="translate(-5.73 -5.85)"/><path class="cls-1" d="M101.69,84.27l-4.32-6.78H95.91v6.78h-.76V70.7h3.14a4.92,4.92,0,0,1,1.44.22,3.38,3.38,0,0,1,1.18.65,3.2,3.2,0,0,1,.79,1.05,3.47,3.47,0,0,1,.29,1.45,3.82,3.82,0,0,1-.28,1.54,2.77,2.77,0,0,1-.77,1.06,3.3,3.3,0,0,1-1.19.62,5.5,5.5,0,0,1-1.5.2l4.35,6.78ZM101,72.92a2.24,2.24,0,0,0-.62-.8,2.72,2.72,0,0,0-.93-.47,3.88,3.88,0,0,0-1.14-.17H95.91v5.23h2.56a2.78,2.78,0,0,0,2-.69,2.94,2.94,0,0,0,.52-3.1Z" transform="translate(-5.73 -5.85)"/><path class="cls-1" d="M108.12,84.27V70.7h6.52v.78H108.9v4.94h5.74v.84H108.9v6.23h5.74v.78Z" transform="translate(-5.73 -5.85)"/><path class="cls-1" d="M125.5,84.16a5.42,5.42,0,0,1-1.75.26,3.82,3.82,0,0,1-4-2.94l.78-.27a3,3,0,0,0,3.23,2.43,3.43,3.43,0,0,0,2.3-.72,2.69,2.69,0,0,0,.85-2.16,2.89,2.89,0,0,0-1-2.25,5,5,0,0,0-.82-.55c-.37-.2-.84-.43-1.41-.68a8.87,8.87,0,0,1-2.2-1.26,3.05,3.05,0,0,1,0-4.52,4,4,0,0,1,5.81.91l-.74.33a2.54,2.54,0,0,0-.91-.93,3.19,3.19,0,0,0-1.73-.42,2.76,2.76,0,0,0-1.86.63,2.2,2.2,0,0,0,0,3.43,9.54,9.54,0,0,0,1.9,1,16.71,16.71,0,0,1,1.54.79,5.42,5.42,0,0,1,1,.79,3.64,3.64,0,0,1,1.1,2.7A3.28,3.28,0,0,1,125.5,84.16Z" transform="translate(-5.73 -5.85)"/><path class="cls-1" d="M145,82.5a7.11,7.11,0,0,1-10.07-10,7,7,0,0,1,12,5A6.72,6.72,0,0,1,145,82.5ZM144.42,73a6.21,6.21,0,0,0-10.67,4.47,5.94,5.94,0,0,0,6.19,6.19A6.13,6.13,0,0,0,144.42,82a6.65,6.65,0,0,0,0-9Z" transform="translate(-5.73 -5.85)"/><path class="cls-1" d="M159.49,84.27l-4.31-6.78h-1.47v6.78H153V70.7h3.13a4.82,4.82,0,0,1,1.44.22,3.3,3.3,0,0,1,1.18.65,3.2,3.2,0,0,1,.79,1.05,3.32,3.32,0,0,1,.29,1.45,4,4,0,0,1-.27,1.54,2.69,2.69,0,0,1-.78,1.06,3.22,3.22,0,0,1-1.19.62,5.39,5.39,0,0,1-1.5.2l4.35,6.78Zm-.72-11.35a2.16,2.16,0,0,0-.63-.8,2.55,2.55,0,0,0-.93-.47,3.78,3.78,0,0,0-1.14-.17h-2.36v5.23h2.57a2.8,2.8,0,0,0,2-.69,2.52,2.52,0,0,0,.75-2A2.65,2.65,0,0,0,158.77,72.92Z" transform="translate(-5.73 -5.85)"/><path class="cls-1" d="M168.59,71.48V84.27h-.78V71.48h-3V70.7h6.78v.78Z" transform="translate(-5.73 -5.85)"/><path class="cls-2" d="M69.36,83.58a36.73,36.73,0,0,0,14-15.17c6.2-12.59,5.28-25-1.37-37.11A43.4,43.4,0,0,0,69.5,16.82c5.11,1.29,9.75,3.21,13.33,7.49.24.28.37,1,1,.63s0-.85-.26-1.18A37.07,37.07,0,0,0,65,8.43c-10.89-4.16-21.56-3.15-31.85,2A43.43,43.43,0,0,0,16.31,24.54C17.23,19.16,19,15,24.4,10.4c.27-.23.9-.38.52-.93s-.77,0-1.05.18A37,37,0,0,0,12.79,20.08c-7.57,11.07-9.09,23-4.36,35.5,3.33,8.78,8.33,15.86,15.26,20.82-5.24-1.71-10.48-4.16-13.3-7.5-.26-.31-.46-1-1-.55s.06.74.25,1a38,38,0,0,0,47,15A44.11,44.11,0,0,0,76.11,69.8c-1.26,5-3.19,9.66-7.27,13-.27.23-.89.42-.51,1S69.06,83.76,69.36,83.58Zm-30.23-4s0,0,0,0Zm13-1.44a31.76,31.76,0,1,1,25.7-36.88A31.78,31.78,0,0,1,52.16,78.1Z" transform="translate(-5.73 -5.85)"/></svg>